<mxfile host="app.diagrams.net" modified="2022-05-12T14:32:33.260Z" agent="5.0 (X11; CrOS x86_64 14762.0.0) AppleWebKit/537.36 (KHTML, like Gecko) Chrome/103.0.5035.0 Safari/537.36" etag="-0IQRZW6a8oV_2xUuICS" version="17.4.4" type="github">
  <diagram id="UUxwLXVuzvfugN820Flf" name="Page-1">
    <mxGraphModel dx="1400" dy="786" grid="1" gridSize="10" guides="1" tooltips="1" connect="1" arrows="1" fold="1" page="1" pageScale="1" pageWidth="827" pageHeight="1169" math="0" shadow="0">
      <root>
        <mxCell id="0" />
        <mxCell id="1" parent="0" />
        <mxCell id="Vom6Ri1xNWv1tY5zl_pj-1" value="" style="shape=image;verticalLabelPosition=bottom;labelBackgroundColor=default;verticalAlign=top;aspect=fixed;imageAspect=0;image=data:image/png,iVBORw0KGgoAAAANSUhEUgAAAp8AAAJoCAYAAAAgf4qpAAAABHNCSVQICAgIfAhkiAAAIABJREFUeJzs3Xt8lOWd///X5EBICKYQpCpYlE0boV+1WHYRocWlVallPYLbLaJdydwDaBet2vZbD62H9icHv62tB4ha66q1teChpRbrqTagtkVb7Eqx6wEVtahUYjmJkOv3x3WPmUwmyWTmnrnuuef9fDzuR5h77rnuzx0y93zmOoKIiIiIiIiIiIiIiIiIiIiIiIiIiEjpqwWWAn8Cmns57hJgFdCY43ka/deblG1WjmXlaxKd15K8flexiIiISIRUuA6ghGwGvkXm5HIScHkeZc8C3gauAGL+NgyYjU38avMoW0RERCQ0lHxm7yVgCHBI2v5a4ERgcY7lNgMXApOBNSn7twALgCOBU3IsW0RERCRUlHxm7zVscjg1bf9H/J/Pp+2fBSzC1lwabLN8JqcBTwJPZ3juFeBLwB1p+y+ha/P8JH9/suk+tbY02Wye2iWgGduNIFMZIuUiBsSxf/9fA6p6OG4KsBG4DhiUoYwxwNXABr+sjcBPgWlATYbyMr3/UrctwF3Av9L/e3QNcAzwIz+OZHm/AOYA+/SzvHQVfvmfyLOcoCR/l6n310wxJo8LqvtQuf2eRQKl5LN/HsEmaalN7+OBdcD2DMdfCLRhP6CuyPB8LTDCP2Znhud3Ym+Yqccv9WMY5pc7GVjt70utLT3Cf80p/uMF/vPN2A/Gs+ls4j8d+8HaW59Wkagx2PfCfwMX0f2LJcCHgfOATdjWjdT3ea3/ut8B/wxcg00YzwP2YhPIG4H9ejj/vcBx/mtSt4uBg4D7gC9g36PZ+CiwHFgBDAC+4ZfXgv3yvAj4LTAxy/IymQj8mu5JeJgUOkb9nkWk4JIJ3yV01ixOSnluETZpm0XX2sX0x5kky8v22/gkMg98uoSutZ3JcyePTy1/Ft37kSZrBZLXpQFHUk4OA9Zjv8QdlLJ/EPZL2et0T0yrsLWl7wJfpnsNZ8x/zUbgbmDflOeS77fe+nN/BPtl90Fg/yyu4cPYZPZJbCKcKWH9P/7z9wHDsygzk0mEv6UkU4xB1Xzq9ywSANV89s8O7IdJ8oPoCGzzyis9HL/Rf01QDgL+hh2clOoRbO1msgvAKv/nauxN8O6UY+8A5mJrVWdhb3AbgMMDjFOklPwZ+A72g/5CbNIZA04G5mNrNH+b9pojsK0Ji4AbgPfSnjfAo9hasc8CXyT7GkyAV/1zTgBG9XFsJXAW9r50KfAH//zp/gdYCHSQXUIrXen3LBIQJZ/9sxPbRD4CW2MxlZ6bzLORTGb7YyN9J7RbgNv8f99G1/hS+5vdjm22PwTbdUCkHBngHmwT+WzsAMLJwJX+/h8Ce1KOrwSmA9uAn6c9l17ur4CHsP0/+zMNm8E23Q/2z9ebkX48K+g6aDGTe7BJder7vQLbbPxTOvsvbgRuAg5NOe4S7Bda/J+prTAx7BfYH2LvP+/655pC30n3Cf7x6bV8yS/HibT9n8TWRp9A9z6fvcWYvNbPYv9Pkl+8F5Bd83ap/55FQkPJZ/+tBQ7G1nyM9R/naie2j9Cn6Ln5Lb1J/SCgLsNxqTWiyRH0ydenfuglBzjVYW9Wfd1ERcrBduC72Ob3S7G1nTuw06u9lXbsPtj3/zrg5T7K3Qo8g00Y+qrBTD9HE7Y/6et9HPsx4Cjs+zpT3/PexLC1u/cB7di+4J/F1uZO9n8e5B+73D8W/+c5fmwx4N+xLTAHYJPF/8De337h/7u3xOg54EXgX1L2VQIf9/99GDAw5bnxwJv+69L1FCMp+74H/BI4Ftut4QrgMjIPDktV6r9nkdDoaXSn9Oxt7DfWL2M/WHpqcs/WXdhvwkfQPRFsBk7FDnTYif2WvB92sNGWlOOSfct2YJPU87A3yOnYb9XzsTfYngY4jUfN7iIbgO9jv+yB7Z7y5wzHDcfWgj0J7O6jTAP8L7b5tQl4qo/jY9jE4lzgDOCr9H2PSfYrfLGP4zIZhk2obga+Tmf3gYexSfP92Kb/jcBfgKH+88/Qeb86CJsgrcDee5KJ2QN+mRdjE/Vne4jhdb+8Zuw9aid2WrtxwBvYL/lD/eNq/f1PYn8vH0krq6cYk2LATP84sF0bOrADfPaj9y8Tpf57FgkN1Xz23xbszeDfya/JPek5bHKZHLGe1IitfUnts/m0//gaOmszkxPcJ5vXj8D2//wudoTuFf7zk+isaZ1N12mXkrWkB+V5LSKlzGCnTNvmP95O5j59uUr/sp/AfmFMnWapA/u+/Tfs6OnvY5vfezPa/5lL//K3sP1Rz6N7v9UXsclMX5UUk7C1k7fStUZwD7ZbQhW2dq8n/wD+iG16TiZ4B2AT9u9gW5qSSeZw/7g/ktu99xHgrymP3wN+jx0Q1tDHa0v99ywSGqr5zM0j2BrJfJrcU93hl/VTutZAnk7XOT53YmtjLqGziX0dts/mc9hE8jrsN+Nkk9QabDPiddiEeQm29jP19Wf7ZSZvriLl6MPYAULJQSIXYt8fGwMqP71v6L3Y5tbd2GbmSdj+h7divzS+k2W5ydq6TH1DZ2H7dqe7lK7Tv1Vgv5B+DNs94BPYZuFsWkRGY7v9HARUpz23L7DLL7OSnhPp32Nr70Zir2cMttbzt9h77eHYL94fwyajud573+ohho9i+9f2Jgq/Z5FQUPLZt2TCl2oN3Sf/vYOuiWL64748l6HMnlxB5nlDeyoj/fi5dL+maSn/XpP2OP1Ykaipwi7ocCK2qbsKW+t2vv84tZbtTWztZCN2nsfeauBi2GTpH3Rv0t1M19aTR7DN8jdik7Av+8f05Q3/5xi6j8p/AZvUJQ3Ftnyk+gT2/jDdf/x3bHPwCqC+j3Mnu/J8lMzJV9Lj9P67egnb3/ZfsEnm4djm543+/mZsn8wJ/vO5NH2D/b/LVRR+zyKhoORTRAQ+ja11/Bm2n/QAbKJzJvAEcCedTfDvYrvAzMAmie29lPshbFeY39H34CSD7b93DXAVtr/fVfQ8mj7peb/8I7GJSWqT7JP+ltSMndg+6SDgWuxnwWewNZDJbgeHYa+/N7uwtXGPY5uV+7rGnryNbUofi615Pgz7O38X+3uYgW16Pxz7u9+a43nyEYXfs0goqM+niJS7g7D9ot8Evolt7t6MnWrp78B/Ybu2JO3F9rGrwyYCPX2JjwGfwzarrsQmD33Zg212/yV2oOCns3jNK9hR1MdhE+b+OAzb3H89tuZ1W8pzH8bWtPXGYGsED8Um4pnKfwKY10c5u7G1vmOxUymNxA4AAztv5kex0xQdjk0Ag+yLm60o/J5FQkHJp4iUs0HYvp2HYSeM35Dy3FPYEcQTsKOMU+eC/BO2v+aXsR/4mVY4+lds0/0jwE/IPmH6G3agUb1/3n17P5y92Hkffw/8P2ySk2nKnf2xg5hS+xcmm2eTE+sn7YudUB0yNwmn9nv8DbYZ/Et07TdZ6+8bRd+j/MHOLLAvEMcmWsnavU3YgZIXYPts/jXjq3uPMQhR+T2LiIiIIzFszeW7wA/IPNducolNgx0AmJo41GCTz3exfQDnAUdjJxf/sb//LmxfvVTZLK9Zgx0caLDdAbKZv3EUdmYMg533cXZKPEvpnJT8KjoT2uHY2ryN2JHYR/vX8XtsX8TUCdzBJul/xU4ZNAWbBKX+Hldhm8g/7/8ODHYZ0my6eDVguz0YbHI3wN9fh+0Hm74fuk8y31OMvS2vmZzMPtulLEv99ywiIiKOjMF+6K/EzvHY23FP+seOSXsu5u+7Gltrmly15kfYBCNTMpBN8gm2KfZJ7ICbw3o5LlUVNom6JiWed7ErLZ2L7WKQnsgeCLTSdcWcf8Umg/8N3EJnrW8Vdoqojf6xR/r701feMdhVhE4h+4Qohq1pNtg5TlOd5+9PTx4zJZ+ZYgwy+Uyeo1R/zyIiIiIiIiKdLqHrJNCZtlnYGoylfRzX0zfrSXRfgzh1DXZD12/20PltPdM3+dRy+/uNXkRERERCIplgpieCfT3Xl/TksxHbp2dW2uPUsmf5r3mAzMll8jVKPkVERCQ0NNo9nJITvK/yf27BTk48ic5lMcGOin0Ju7Z7pjKewa7QIiIiIhIKSj7D6Q5s8rglZd9BPRz7K7onpbXYTulrChGciIiISK6UfJaGRux0HrfRNSEFuwQddJ0E+yP+T62CISIiIqGi5DN4l5N5sNEqutZOZiPZj/Rt//GqDMdswdZwpja9j8c2t2t9XxEREQkVJZ/BuxQ7F1v6lt6Mno2dwFz/9VcAD9N1RHzSi3Q2vTcC04G1OcQuIiIiUlBKPkvH09gJp0/L8NxabII6DNv83o5dh1hEREQkVJR8Fl/6NEpBeAU76n08tvm9DTW5i4iISAgp+Sy+Hdgl00an7f8bnX07L6H70nt12BHvL2YocyfwGnZJusmoyV1ERERCSsln8SUTxdTpkaZiE9Id/uO7sGv5npLyuvn+z0yDjgAeAY7F1oCqyV1ERERCScln8Hoa7Z66ROYSbLL5tr9/BHAenU3lzwH/DlyY8toRwMn0PGhpA3a1IzW5i4iIiIiIiIiIiIiIiIiIiIiIiIiIiIiIiIiIiIiIiIiIiIiIiIiIiEhYZVpxKKkZ+BN20vhsTcJOFp+cZL7RP0em8lPVAov8cyZftzSlnPRjl9I5t2i2moE7M5SZXBY0fe7SIJcJFRERkYjTJPNurAGm0Tlh/HzsJPJ9+Yj/M7mC0TDgXTpXRkp1CpDoZ1yNwDXAkAzPDQNiwCH+z+R2Rz/PISIiImVMyWdpGQb8g84VjIYB6+i+olEzdnWk/piEXXHpuF7Obehcf15ERESk35R8Bi/ZpH4iXZunJ2U4ZgS2afxybC3lE3Q2qWdyEPBiyuPkmvCparFLdV4PLOtHzKuB0/2tp3OvoeflPUVERET6pOSzMI4DPgfUYZumL8X2vUzvR7kLmOs/vwyYiF3XPVVqX8vb/S2Z0F6OTRpT+6Oegk0U7+9HvGvovQm9FvgU3detV39PERER6Rcln4WxDvgunc3hdwH7YftL9tcWbP/QYdgENdn3MvXxXP9cjcBs4AqCraGswya0y+hMqA/BNu0rARUREZGsVbkOIKL+RvB9I9MHFw3D1pKmJpnzsbWYa+h75Hx/JBPgVM8Bi7HJ7irUHC8iIiJZUM1nMDZT+IE46YONxgNvpjw/yd+uL3AcqTZia3SHFfGcIiIiUsJU85mdF+l5KqRhwIcLeO5GbF/M5Cj0y9Oevx3bHP6mf0ymJHgStnl8ftrrL8U20YuIiIgUhWo+s7MR2+exLsNzBwFP0jn3ZtCSTd6XApOx/S3rsE3eyTk3k4OWUuffrMMmpZfSOafoFWnHZJt49jSR/kEU9tpFREQkYpR8ZudpbAL6bbr2pZyErXm8je5zbQapEVvzusF/XAfsQ/Hm3HwOWEHXEfvFunYRERGJECWf2dmJrV18DTvgJznV0HXY2sc1eZZ/F3CkX3amZTrTBxsd4sdSzEE+V2Cv823sta/G1sTme+0iIiIiIiIiIiIiIiIiIiIiIiIiIiIiIiIiIiIiIiIiIiIiIiIiIiIiIiIiIiIiIiIiIiIiIiIiIiIiIiIiIiIiIiIiIiIiIiIiIiIiIiIiIiIiIiIiIiIiIiIiIiIiIiIiIiIiIiIiIiIiIiIiIiIiIiIiIiIiIiIiIiIiIiIiIiIiIiIiIiIiIiIiIiIiIiIiIiIiIiIiIiIiIiIiIiIiIiIiIiIiIiIiIiIiIiIiIiIiIiIiIiISKoNdByAiIiIi0Tdi4MCBP2hqanrJdSAimRh41IDR1m171PX/jYiISH+MGDhw4A8As2DBgvcA4zogkUxMwH+bQZfnSlSuQ0REoq9L0rlp0yZjjDHog0xCSslnZlG5DhERia6MSWcS+iCTkFLymVlUrkNERKKn16RTyaeEnZLPzKJyHSIiEh1ZJZ1KPiXslHxmFpXrEBGR0tevpFPJp4Sdks/MonIdIiJSunJKOpV8Stgp+cwsKtchIiKlJ6+kU8mnhJ2Sz8yich0iIlI6Akk6lXxK2Cn5zCwq1yEiIuEXaNKp5FPCTslnZlG5DhERCa+CJJ1KPiXslHxmFpXrEBGR8Clo0qnkU8JOyWdmUbkOEREJj6IknUo+JeyUfGYWlesQERH3ipp0KvmUsFPymVlUrkMk3SXAKqAxZV8zcGfavknYN0Fym9XLc6nbJP+YRmBphvP8KeWY1JjS96VqBs7r5bk/pcWQfn0irjhJOpV8Stgp+cwsKtfRHxWuA5CiOQ6Y1svzs7AJ4TAgBtQBn/L3Aazx98eAS/0t+XiNf8x84DZgS0q5pwErgKlp57semE3mhPESYA5QT/cEOWkzcEhaDPN7uT6RQksmnZsSiYS3adMmvve97w0YMWKE67hEREJFyWf5WAycga01TNcITAcW0Jk47gQuAsb28Jp0zcBg4Om0ckcAP81QzhagjcwJ8RXAOv+1Z9E1me3JI/7xtVkcKxIkJZ0iIv2g5LN8rAP+G1sTme4QoB14JW3/Dn//+CzKH++fY2daua8BfwVWZihnLXA43RPGScBobC3qBVmcG2zNalva+UUKSUmniEgOlHyWl1XYxK63vpapdmKTx2yMBjam7ZuKrZGEzInm28A+2Cb+VGuwtZ/Jn5l8GNhAZ5/PEcDdWcYqkg8lnSIieVDyWV62YJO52QTbPF2LTf5SNWKT3NXY5HADcCzwkYDOmd7n8zbgHjToSApHSaeISACUfJafZJ/ML6bs2wA00D0xbMT21VzbR5mZakinYWtC6+hMEBeTudk/CBuAd7ADpkSCpKRTRCRASj7Lz07gu9hayCH+vi3YPpnX0FlzWAt8G1gPPJdFuS8CB6W89lN074O5EVsbmjzHMOBdbN/SfB2CvZ63AyhLBJR0ioiI5OwSus7Zif84fW7M3ub5TC/vkrR9zcAibOLZDDxA91Hyjf45k+XO6uUcvck0z+efMpxPJBdO5+nMF2U4Z2AAkve+9PtaGNQAJ2P71ffHIOAW7HXNCTqoXGiez8yich0irvQ1cXyqTBPSi7hU0klnEvogy0WYk89Z5Pbl+jD/dRuwgzGH9H544Sn5zCwq19EfanaXIPU2cXy6TBPSi7ig5nWJmhjwWWw/+OuAI4GPOo1IREQkaqqrqxcOGjToLcAMGjTorerq6oV9vCQSNZ3pKMNalABEreZzCLa28xr/dWuAy4HKwKPrB9V8ZhaV6xARKSuNjY3rZs+eve3ZZ581xhjz7LPPmtmzZ29rbGxcl+HwSCadSeiDLBeZks9J2KTvUOA/gCf9Y570H9ekHJvsh34m8IWUYx8CTgGqMhybqb97aqJZi+2alNq3Pb2ffk8+gx3MOQsYAPw/P6aDs3htwSj5zCwq1yEiUjaqq6sXzp49e1umRGz27NnbUmpAI510JqEPslz0lHz+FViBTfpmAJ8HfuwfuwDbvA2dCeUTwP8A5wHHALf6x15IZ61jtslnJfAJ4Ft+HLOwzec1GV6XqhJby5mabJ5A74NIi0LJZ2ZRuQ4RkbIxaNCgt5I1numeffZZU19f//dySDqT0AdZLnpKPg1wL3ZFtaRkk/bPsPMjQ2dCuRGYknJsFZ1T1n087di+ks/e9vXmAOBRbJN7Tdq+W7Cj4J1Q8plZVK6jPzTgSEQcuWEEtCbghl/A+Efp2ryY9bZ9+/ZhY8eOzXiGsWPHsm3btiGHHHLIvLVr15bTQKKcfpcp26PFDzm0foVdUS1pK/AMMJiuzelga0VXpzzeA/zUP+7YAsaY6kjgaOAx4D1/32ZsrexxdCbBEhI/g9+4jqHYlHyKSBEtHQutX4XW30LFs7D3U1B5B/znv9G5Ela/tkGDBr29fv36jGdbv3499fX172zYsOGG8ePHc+655+5+7bX0xbgiKaffZcp2dNEjDq830h4bYC82+axPe+5Z/7lUr2EX4WgCBhYiwBQ12JrX3wF/TNm/F3gYG++xdHYXkBA4rQzfb0o+RaTArj8Kln0bWtdBxf1gPgId34HEh2De6eD9BM7elmvpu3fv/uFVV121PdNzV1111fb33nvvxl27dn0ZGLls2bLWkSNHllMSKvnraTq4QXRPJl/tpZxKCp/0NWH7mk7AJryptdkPYRPmKcB+BY5DpFdKPkWkAFo/B0uvg2UvQ9UNdl/HXPAOgsQ5MHdVUGd6//33v3b//fe/cMYZZ2xP1oCuX7+eM844Y/v999//wvvvv/81/9DXlIRKgR2YYV8FNvHcQfda0XTpNan9dSQwBrgW+HqG7Xbs/J8T8zyPiIiIa9fVQ+sX4IbbYdlWuOG3tnl9aebOmAWgeT4tghm8UG4DIHobcJRp1bZL6DoIKDmI6GK6124ehh2tnkg7NpF2XCXwHXIfcDQY+G9sf90DejjmX4DXcTTwSAOOepTNdURqVUDVfIpIjlIHDFX9A/bOgso26Pg4zPs0eItgbubOmAXw/vvvf2379u37ArHt27fvm1Lj2RPVhErQpgOHpDyuwc77uYPOQSX/wK48NJau0yZ9DJjaQ7kV9N1kPwZbq9lG1wFSqZ4FHsA2yx/UR3kiIiJhkDpgaNlWW9PZ+gVb81nyIlETimo+cxFUzefrwO+xk80n5wR9F/gincljJfB//bKvx/bRnIedl/M2utdyHuMf+x16nuczBnzFP9dn+rjWOX55X6HIA49U89mj3q4j+XeYvjmds1VEpMCWTuwcMNS6EZZdC0unuY6qgEo6CUXJZy6CSj5TVzh6F7gHO8AnPcmrBeZip2xKDgaaSueqSqnJ5yDsRPNbgLXYQUXp9gcexE4LNaz3S+VgP74H/dcVjZLPHpVds7uISAapA4Za19nkc2m5DVIoySQUJZ8u9DZxvPiUfPZIyaeIlCP3A4ZCrKSSUJR8uqDkMwtKPnsUlesQCY0B2OakC6uqqm4fPHjwU7W1tW9UV1fviMVie2fMmJHzyjb5bE1NTS8V4dpDLnXA0DJjf7Ym7H7JoCSSUJR8uqDkMwtKPnsUlevImlY5kEIYBpxWV1c3c8eOHVOam5vfmjJlSvWECROGNDU1MXLkSBobG6mvr6eystJJgLFYDMry73/pWKiYDnunQ8Vh0LESKlfC+yvzmei9zIwYOHDg13ft2nXOggULdl944YWhWrIzoL9tE0AZ5aQZu4zmYuAOx7GElgETC/DvKujyHNL7TSQPE6uqqu4A9k6fPn3z8uXLzbZt21xXBGVEWX3TTB0wtOxl25ez9XOuo4qAUNaEoppPCSnVfPYoKtchUlTj6uvrVw4dOrR90aJFu7du3er687dPRP7NrgFDRRSqJBQlnxJSSj57FJXrECmahTU1NbuuvvrqDqefuP1E5N7sGjAUAqFIQlHyKSGl5LNHUbkOkYKb3NDQ8MLMmTO3bt682cmHbD6IxJtdA4ZCymkSipJPCSklnz2KynWIFNT8ysrK92+99daifqgGiZJ9sydXGLohiisMRY2TJBQlnxJSSj57FJXryJpGV0m/VFdXLz7wwAPj99xzT8Nhhx3mOpycldZo96UTITbdbuZDYFZCxUrwfuU6MslKUUfHa7S7BKiloaHhW+3t7SMaGhpea29v/xZwU66FlcBody/AsvpjGZBwdO5WFyfVzUWyVl9ff8uhhx560qpVqz60zz77uA4nL+FPPpdOA/4NKj4PtNuE06yEuU+4jkxyVpQkVMmnBKRl1KhRV99+++37TJ48mdWrV3P66ae/+/LLL59PjgloCSSf3wQOCLC8bNUBOxyc93XgMgfnFclOfX39LZ/5zGfCP4w9S4SumUMDhspIQZvjUbO7BKChoWFTW1tbl7+ttrY209DQsCnXMtXsLiJZq66uXjxx4sR3Av2EdIxQ3LQ0YKjMFSQJRcmnBKO3v6+cthnwSKAB6u9UJLLmjx49emt7e3sgH4xhgbOblgYMSTeBJqEo+ZQAFKLmM2hKPkWiaXJlZeX769aty+vDMIwo6k1LKwxJVgJJQlHyKcFoGTVqVHsyAW1razOjRo1qB1pcB5ak5FMkghoaGl4o5emUekPBb1pLp8Gya6F1Y+cKQ9cfVdhzSkTklYSi5FOC0+LXdCZrPEOTeIKSz1Km0YzSk4UzZ85M3HXXXQ2uAymE4Ee7X1cP1dNh73SomA6xZ4CV0LES5q4P7jxSRnIaHa/R7hKgScBZwKvAt9yG0l0BRrvn45MOz/2Uw3PnJCz/aRIu42pqap545ZVXaoYPH+46loLwP6ADNP43MGcbVK6EvSth3msBn0DKV7+SUCWfEoCz/G0Y8EN/e9tpRBmELPl8C6h2cN492P8nkdJWX1+/stTWau8v1FwjpSer5njU7C65aQYWYpOoe4ET3IbTt5A1u+c1E0Cem0jJmzh06NBoDW3PAL1hpXT1moSi5FP650TgPmzSuRCbhJYEJZ9KPiUiqqqq7li0aNFuRzlh0aA3rJS+jEkoSj6lb8OArwIbgNXYJvaSE7LkcxewPcdtZx6v3VWMiwtaWPpKSDgMAzZv3bq1oqEhkuOMPhD+5TVFstalT+g111wzAPX5lMySA4jOorMv5xqnEeUhZH0+81kXPt+13Z2szy4SlPnTp0/f7LhSsigI1zdmkSCMGDhw4A+amppeCqAsvT+i5SxsDecGbI1nJAaohKzmMx+Huw5AxJm6urpHly9f7jovLAqic9MSSTc4gDL0/ih9qQOI7sP27YyUCCWfZScs1dXi3gBg17Zt22KDBg1yHUvBqdldpFdqdi9dJ2JrOo+is2n9OacRFUjImt2lH6pcByChMbm5ufmtQYMGRXNiTxGR6BpGZ1/Ot7EJZ+RqOiPsNaDvFSQipMJ1ABIan5wyZYqLCXJFRCQ3k4CbsU3rzcAcYDI2+ZTScYDrAIpNNZ8CQFVV1eETJkwY4joOERHpU/oKRPsSwhWISlA+I9ZL9dxORsor+RQAamtrxzQ1NbkOQ0REMmumM+l8HFiMHUgkwdkfN7WQt+Nj+OWNAAAgAElEQVRmbfjXHZxTpFNtbe0bL7zwgutB6EWDRkmK9Ebvj+JpaWho2AQY/2dL2vMnYJe7fJvir0DUV2xOabS7SImrrq7esXXrVtc5YdGgm5ZIb/T+KI6WUaNGtbe1tRljjGlrazOjRo1qB87F/QpEPcUWmgRUyadIiYvFYnv37NnjMh8sKnTTEumN3h9F0NDQsCmZ3CW1tbWZffbZpx07kGhS2GLza0BDQcln6dL8WKVoDmN4met5iKODLNbmZOVB83xGWJwTqOA8TLDvjx6ZEHwABhVBhV/SWmKMD8F15aNY/y8v0ZbPvTjTfTck9yfTS2y5ehQ4H/hjPoUkaZ7P0qUBR6UoxhJGsxL418CKjMX27t27t6KysjKoIkWKz2MmcBsxTmRZcO+PLJXWh2Bfqdm3Sux6+rK+QNdj5wjZm8tLGxoaNq1evXrE5MmTP9i3evVqGhoaXmtvbw8mvhw1NDS81ktsI3Msdi52dPU/BxGjiBSLx9l4PBx0serzKSUvzmzitJMoUo2nSP7C3K+yULHdCCwNIL6wNbt/0uEmUkAtHEycnXgcEXTRGu0uJc2jBY/NJJjoOhSRfgrziPJCxFYBPBVEWSFLPt8CtjrYNL+rFJjHCuJcXIiiBw8e/NRjjz3mOicsGsJ105J8xDmHOK8wl3GuQxGRrPwz0AH5vWdDlnwah1vJ0fKapSLBHAz7cSNXFqL4nTt3/uX5558vRNEiheNxPoYFVDCNpcEMYhCRgvsDMA9Hq+uIe0o+S4HH/uxlCXBhoU6xZ8+edb/73e/eKVT5IoHz+AaGL1HNcSxjvetwRKRflmFHvQfS/zME3gN25LjtyuO17xXwmibRtYZ1VobnVwGNaftnAZf0VrBGu5eGJcB13MjjBTzHU4899tj7BSxfJDgel9PB8VQxjRt4zXU4IpKTudha0Dh2IFIp+688XrsMSAQVSIAOAi4Frujh+aeBjcAhwBp/XyMwu5fXSEmIM4s4TxfhTAOAjm3btrnujlkUlGg/GQFaWEiC1XgMcx2KiORtPLb/Z78H0oasz2c+DncdQA8uoXttZ7r0Ws6eakO7ULN7mM1jCDEWY7igCGfbXVdX99iqVauKcCqRHCX4HhWMp5JptGqUp0gErMX2/1zmOhCH1rkOIINGbCJ5OzbJ7ymhXAuMTXluKnAbsKW3wpV8hlkHi4EfcxOPFON0O3bs+NmPfvSjN4txLpF+i7OUDj4GTON6trkOR0QCE7X+n1GwBZiGXTwjhk0ovw3Uph33CtDuH9uITUTXFi9MCVaCU4gXfRDFMGBvOUw2T3Saa8pDglvwuNt1GCJSMDHs/J/xbF8QoWb3Uui33ltz+izsF4dj/J/pCWo3qvkMozMZSAdLqChKc3uqt6uqqn7S2tqqgUcSHgl+TAcDaeUU16GISMEY7KCbZeTQ/7PEHeA6gAwasYlkanP6GjI3p68CGoALsDWkO/sqPFpr90aFx7UAtHKOg7NPHDp06KotW7bs4+DcRROLxUB//+EX525ivEsrX3IdiogURQK7+lGf678bMLFg7+NegGX1h8vR7r3NtToJWO3/+wFsDWdPfTkv8Y/v7ZgP6MM3bBIcTwfXspux3MouFyHU19evvOyyy47/yle+Etm/DyWfIedRTQf3EuNVbmSu63BEpKhasSPge33vFyD5/CZuaiHrsHN2FtvrwGUOziuhE2c9CefNi+Nqamp2bd682XXXzIIh8OXNZjwK5pji/jdF1HzqaeFhPK5xHYqIOJFV/88I9fkUcchjCQluch2Gb+HMmTMjO/KIwG9a5iQw28FMCrbcMnM2jbSwmhYWug5FRJzqc/5PJZ8i+WphKh6vM48hrkNJamhoeOHWW291nScWBAW5aZlZYN4E84ngyy4DcxmBxx/wuNx1KCISCgnsCkgZKfkUyVecp4n3uZJAsU2urKx8f926da5zxcBRsJuWiYPZCOZjhSk/ouYxmjh/Js5FrkMRkVBppYf5P5V8iuSjhSvxuMN1GD2YP3r06K3t7e2u88VAUdCbljkXzLNgRhTuHBGSYCwef8XjfNehiEjo9Nj/U8ln6dJoX9fiHIXhl1QwllbecB1OJtXV1YvHjx/f8vjjj3/IdSxBKfxod/MN4GTgWIi9U7jzlLi5jKODezEs5kZ/ijERka7GA7/3fz6d3FmA0e75+KTDcz/l8Nw5Cct/WvmKs4YKfsgybnYdSm/q6+tvmTBhwskPPfRQg+tYglCcqZbMlcBkbAK6u7DnKkEtHEkF92G4mBu50XU4IhJq3eb/DFny+RZQ7eC8e7CrE4pkKc5FeKxwHUa26uvrb5k4ceI7UWiCp2jNNea7YO4vzrlKyByOxmMrcWa7DkVESkaX/p8ha3YvwBR+WW8iWZrLOOLspIWDXYfSH9XV1YtHjx69tdQHIVHUN6xZBuZnxTtfyLVwHHF2Euc016GISEnp0v9TyaeST+kvj4fxONt1GDmaX1lZ+X4pT8NE0d+w5nYwtxb3nCEU5wQ8DHFOcB2KiJSkD+b/DFnyuQvYnuO2M4/XOlkJMV9h6StRXjzOp4Op3MTnXYeSh8kNDQ23HnvssY3XXnttw/Dhw13H0y9ultc0dwN/g9j84p43JOKcRoz/poMTuYkHXIcjIiUrAbQYGB+iPp/5rAuf79ruva3PLgLMYQwehjmMcR1KQBbW1NTsuvrqqztc12b2B86+MZsHwCxxc26H4szGYytzONp1KCISCa0hq/nMx+GuA5Coa+GXEZzPcFx9ff3KoUOHti9atGj31q3hX5UTd8lnHZg2MJe5Ob8DHi14bGYeR7oORUQiI+Ynn/nUOIqUAY+z8XjYdRgFNLGqquoOYO/06dM3L1++3Gzbts11npkRTr8xm33BPA3ma+5iKJI45xDnFeYyznUoIhItfvLZgds5NiUHYekrEX0tHEyM9cSYRGvnJLkRNQw4ra6ubuaOHTumNDc3vzVlypTqCRMmDGlqamLkyJE0NjZSX19PZWWlkwDd9PlMZUYBDwDXQiyak6vbGv4EMU5iGetdhyMi0eLP85nAjn7/576OD7HXAK2IJwXgsYI4F7sOw4EBwFTgwqqqqtsHDx78VG1t7RvV1dU7YrHY3hkzZjyKg6kpmpqaXirCtffBjAXzKpizXEcSuDgXEefPzGO061BEJJpS+nwu87dSFZW+q1lTzWcxJJhDB2dxI5NchyJhY8Zja0DnQ+ynrqMJhMfldHA8VZzIUl5zHY6IRFPaCkdPYRPQfEZ+u+o/mu9o93w4GSlf5eKkZcVjf/ayhFhJT6skBRNbC+YU4AEwOyD2C9cR5aWFhXQwiQqmsZS3XYcjImXDA/6ATUJzXet8f+CAwCLK3u246bf6uoNzSlF43EELV7oOQ8LOfA7MHjBTXUeSM49r8HiY+dS7DkVEoi/DVEsesNZFLCLhEWcW8cgPLpLAmBlg2sGU3pREcZaS4Jd4VLsORUTKQw/zfJZ6/0+RPMxjCB6v00Lp1mSJA+YMMG+AOdR1JFlLcAsed7sOQ0TKSy+TzK9F839KWUpwEx7lt5KNBMDMBfM8mPCPFI9zJ3HudB2GiJSfXpLPT9qnNf+nlJMEpxDXvIaSD3M+mGfA7Oc6kh553E2CW1yHISLlqY/lNdX/M8Q01VLQzmQgA1hPBeewjPtdhyOlzFwCHA8cC7F/uI7mAx7VxLiXDl7lRua6DkdEylPaVEuZJPt+FmMaI5e1rLmO7ndGyWfQPOxqNa2c4zgSiQRzFXbljmMhttd1NMynnt3cRwX/QysLXIcjIuUri+QTbO1nK4Wfz/ItcDLgcg92VUEpWwmOJ86LnMlA16FIlJjvg/m56yg4m0ZaWE0LC12HIiLSR7N70ieBRwsdCw5W6kvZpKzFWU+CU1yHIVFkbgbzE2enn8sIPP6Ax+XOYhARSZFl8ukfWnBKPvtBze5B8VhCjA+xjBbXoUhUmTuBHRCbU9TTzmM0e7iPGHfSyneKem4RkR5k2ezuH1rwfGcXkGvXqBi5J5GVUHqtrVpeMwh2Ls8vUsHHXYciURb7D9v8bn4AsS8X5ZQJxrKXe4mxjFauLso5RURKz3/l8VqXa7tLyYrzNHFmuQ5DyoGpBPOQPxCpsOYyjjivENfgOREJn5A1u+cj7PFJ6LRwJR53uA5DyonZB8wTYC4t2CnmcSQem/HUjUREwknJp5SnOEfRwjt47O86FCk3Zj8w6+xk9AGbw9F4bCXO7MDLFhEJiJJPKU9x1pCguIM/RD5g/slfhnNeYEW2cBweu4hzWmBliogUgJJPKT9xLsJjheswpNyZQ8G8DuaMvItq4UQ8DHFOCCAwEZGCUvIp5cUOxNhJCwe7DkUEzJFg2sHMyLmIOKfhsYsWjgswMBGRglHyKeXF42E8znYdhkgnMxXM+2A+1++XxpmNx1bmcHTwcYmIFEYZJZ/NwJ/84/7kP5ay4nE+LfzSdRgi3ZnpYHaBmZL1S+LE8dhMC0cWMDARkcCVUfIpZW0OY/AwzGGM61BEMjP/DubvYMb3eWicc/B4mbmMK0JgIiKBUvIp5aGFX+IR/NQ2IoEy/wnmVTBjezzE43w8/kqCno8REQkxJZ8SfR5n4/Gw6zBEsmPOAfMcmFHdnopzEXH+zDxGOwhMRCQQSj4l2lo4mDg78TjCdSgi2TNfBfM0mH0/2OVxOR5/YC4jHAYmIpI3JZ8SbR4riHOx6zBE+s9cBmY1mDpaWEgLqzmbRtdRiYjkS8mnRFeCOcRZ4zoMkdyZxQx55mVaeJj51LuORkQkCEo+S1eV6wBCzWN/9rKEGJ93HYpIzuKxwTx8F9y0dxtUbnMdjoiIlLcK1wGE3BLgOm7kcdeBiOTE40fEGM6Lp42CinfA3O46JBEREckkziziPO06DJGcxbmTBD/uutP8DEyrm4BERIIToWb3b7oOoNhU85nJPIYQYzGGC1yHIpITj7upYBfL+GLXJ2IzgRFgvuskLhERSdUEtLsOQsIgwU14LHEdhki/eVQT537iLO35IFMD5jdgvl20uEREAhaRms8m4H9dByGuJTiFOOtdhyHSb/Opx+NhEnyv74PNEDC/B/ONwgcmIhK8iCSf/0QZJp9qdk91JgPpYAkVam6XEuMxjL2sooO1LOPcvl8Qewc4BZgFJovjRUSkQGKuAxCXPK7F41rXYYj0y1xG0MJaPC7v/4vNx8C8BCYefGAiIoUToZrP510HUWya5zMpwfF0cDy7Ges6FJGszWM0e7iPCu6kle/0v4DYX8GcDPwazA6I3RF4jCIiIpJBnPUkOMV1GCJZSzAWj7/icX7+hZlJYLaBOSn/skRECi8iNZ+jKcOaTwHwWEKCm1yHIZK1uYwjzivEOSe4Qs0xYAyYY4MrU0SkMCKUfL7gOggptham4vE68xjiOhSRrMzjSDw249ESfOHmJL8GdFLwZYuIBEfJp5SuOE8TZ5brMESykuBoPLYSZ3bhTmK+COZNMOMKdw4Rkfwo+ZTS1MKVeGiAhZSGFo7DYxdxTiv8yUzcHwX/scKfS0Sk/5R8SumJcxQtvIPH/q5DEelTCyfiYYhzQvFOahaAeRbMyOKdU0QkOxFJPg9GyWcZibOGBHNchyHSpzinEWcnLRxX/JObb4D5g10RSUQkPCKUfL7oOggphjgX4bHCdRgifYozG4+tzOFod0GYK/214GvcxSBSUJOwCcolrgPJoAY4Gds825dLsNeRvr0L/Ao41S8vEpR8lq7ym2R+LuPYy8V0aDJ5Cbk4cWJcSQfTuJkn3QUSuxjMd4F7gOPdxSFSlmYAFwL/nuXxbwC3AX9P2TcY+CywHPg6cDWwJ8AYRaRXHg/jcbbrMER6FeccPF5mDiEacW6WgfmZ6yhECiDMNZ+zgD8BzVkce0kvxw4CWoH1wMcDi86hiNR8HkQZ1nxWuA6gqDzOp4NdtHKd61BEeuRxPjH+iyqmcTN/dB1Op1gCeA/Mra4jEZF+2w48BowBPuQ4Fukq5jqAYiuf5HMOY4AlGC5wHYpIj+JcBJxJJdO4nr+4Dqe72OnAYDDXu45EpMAmYWsRDwX+A3gSW4P2pP84te9ks3/smcAXUo59CDiFrl3cksdmml86tZazFlgK3A4cDmwAVgGNeVxTPbZZflceZYjkrXySzxhLgAu4OYwf6CKAx+XEOIkKPscNYW6GiZ0C/BOYJa4jESmwOuBb2KRyCTAd20T6Y2Au3Wus5gIXAz8FjgVeA1YA5wGV/Tz3bmzyeRnwv8Dpfizb+n0VNvmdCPynH8/6HMoQCUx5DDiyfTwH0srVrkMRychjER0cRQ3TuI4trsPJwsnAA2Aug9g3XQcjUiAfxSZqZwKb/X2PAwOBycCPgPaU4/f3j33Mf/wosAmb9N0PPNuPc+/F1oJ+HNgBrAWey+J1yVrSTL4HXArs7EccIoGLfvLZwsEYlhBDa1W7MQB7k/5kVVXV4bW1tWP27NlzwJ49exr27NlTc+qpp/52+fLlRxc7qKampo3PP//8wcU+b0Ye1wAfZwDTuC6nWg0HYjvAnAz8GswOiC10HZFIgfyKzsQTYCvwDHAk3T9DfwysTnm8B1sLOhNbE9qf5DNXmUa7DwCmAOcC+2BHvL9VhFikb2EeDFUw0U8+K1iC4du08rTrUMrIMOC0urq6mTt27JjS3Nz81pQpU6onTJgwpKmpiZEjR9LY2Eh9fT2VlZVHuwgwFosd5OK83cRZSgcHUsHnuJ73XYfTP7G3/QT0ATDbIXat64hECuCNtMcGWys5GNuHMrWl4ln/uVSvYZvqm7A1poX2JvBDuteSfhv4InA98DywiO6xihtlN+Ao2slngjl0sB83cqXrUMrExKqqqnP27NnzhenTp7/9pS99afi0adMYNGjQcNeBhZLHjzDsw0183nUouYu9nFYD+kPXEYkErKduMIPonky+2ks5lbhNMjqwA5bWAFOBm1DtpzgS3eTTY3/2soRYKX+wl4xx9fX1VwwYMOBTX//612s9z6toaGhQwtmbOHfSgeEmTnEdSv5if0lJQLdD7KeuIxJx5MAM+yqwiecO+q5prA88oq62Ay9juwwMRcmnOBLd5NOOTLyOG3ncdSARt7CmpmbBZZddNuArX/lK2TUd5MTjbmK0s4z/dB1KcGJrwZxEZw3oL1xHJOLAwdjazdR+fPsDo7CrC+1O2Z+eaFb6xxXSIP8cm7DN8yXLwJeA3zgOQ3IUzeQzziwMY7gp4zxqEozJDQ0Ntx577LGN1157bc3w4aro7JNHNYb7MLxCK3NdhxO82G/9GtCfgzkOYo+4jkikyKZjpzJKTulXg533cwedidI/gHeAsf7z7/n7P4ZtDs+kgvyb7GPYQU+TsKPe382zPGcMXAWcCJH4Aq8BR5EwjyHsZTEdnO46lAibX1lZec33v//9qjPOOMN1LKVhPvXs4T4q+DPLONd1OIUT+xWYLwD3+AmowzXpRYruI8CtwHXA29hJ46dj5//8q3/MZuDXwHeAauAe7GCkM7HzeR6aVuab/r4zgJ8Df6QzYc1kOHAWXUe7V2Ln+ZyOnfLpRkpwsJGxKzP9yP6TiTE780AUqNWw5CW4CQ9Nfl0g1dXVi0ePHr113bp1ppRRzG+bHsNIsJoWymg6InMGmNfBpH+QioRRprXdk/syTdOXvoZ6phWO3sUmllPonlzUYhPSZ+hcCWkqnasqpa7NPgg7ufwW7FyfTb1cxyV+eZm23wDnkN8KSc4YONLAXwz8f7m9PLQ+gu2HKyUrwSnEtXJDodTX198yceLEd9rb213njnmjWDejuYwgzlo8Li/K+ULFzAXzPJh/ch2JSIH1tmSm5MnAlwwYY5P7HIsIrbJMPqPT7H4mA+lgCRWc4zqUKKqvr79lwoQJJz/00EMNrmMpGfMYzR7uI8adtPId1+EUX2wpmEHA3X4T/N9cRyQipSWlf+eRMfid63gKIMyJccFEJ/msYQlwP8u433UoUVNdXb340EMPPUmJZz8kGMv73EcFS8t7WdfY1WDq6OwDWrKDHESkeAwMAW6x/+TIWNdlTKOm7Pp8VrgOIBAJjsdwPO9xgetQImj+gQceGF+1atWHXAdSMuYyjg5WEeOa8k48k2JXYNe6vgdMpetoRCTcjB0c9QTwlxicHPHEU0pWnPUkojBZd+hMrqysfL/UBxdlQqGaOhJMxGMzHi0FKb+kme+D+bnrKEQkvAz8p4GOPPp39lBsaB0IvOI6COkvjyUkuMl1GFHU0NDwwq233uo6TywICnEzSnA0cdqJMzvwsiPD3AzmJ66jEJHwMbDQwHoDE4IvOrSUfJacFqbi8TrzGOI6lAhaOHPmzK2uk8RCIeib0VyOw2MXHjMDLTeSzJ02CRURAQNDDdxr4G4DhRhbEObkcyRKPktMnKeJa2qLAhhXU1Oza/Pmza5zxIKh57nwcttG8yhxTijuf1MpMz8H8wPXUYiIWwYmGthgKOiMIGFPPl91HYRkq4Ur8bjDdRhRVF9fv/Lqq6/ucJ0gFhLhvhmVAVMJ5mEwV7mORETcSOnfWeil8sJ8v1fyWTLiHEUL7+Cxv+tQImji0KFDS38W+T4Q7ptRmTCDwTwB5lLXkYhIRi0NDQ2bAOP/DGwgZUr/zn8JqszeTxdaSj5LRpw1JJjjOowoqqqqumPRokW7XSeHhUa4b0ZlxOwH5hkw57uORES6aBk1alR7W1ubMcaYtrY2M2rUqHbyTED9/p33+f079wko1ixOG1ojUPJZAuJchMcK12FE1DBg79atkR1n9AHCfTMqM2a0vwznPNeRiIjV0NCwKZl4JrW1tSVrQHNi4CgDzxW4f2cPpw6tEUDOv1MpBo8jiLOTFg52HUpEzZ8+fXp0RxmlINw3ozJkDgXzBphC9/0Skez0du/MaZsBjxShf2fGa3Fwzmwp+Qw9j4fxONt1GFFVV1f36PLly4ucBrpBuG9GZcpMANNuP6NExKVC1Hw6FOb7vZLPUPM4nxZ+6TqMCBsAdGzbts1ROlhchPtmVMbMVDB7wHzOdSQiZa4gfT4dCfP9XslnaM1hDB6GOYxxHUqETW1ubi6LJndjlHyGm5kOZheYKa4jESlzBRvtXmRhvt8fQBkmn1WuA8hKjCXABdzMX1yHEmGfnDJlSrXrIEQgthLMmcDdYI6D2FrXEYmUqb+0t7c/ALza3t7+LdfB5KAB+DrwG8dx9CXmOoBiq3AdQJ88zqaCgbRytetQoqyqqurwCRMmaJlSCYnYT4ELgHvAjHUdjUiZOQtYDdwMPAdc6zacnHwdeBmbgJ7pOBZJE+6azxYOxrCESo5yHUrU1dbWjmlqanIdhkiK2C1gBtFZA/qy64hEIqwZm3SeBawBFgE/dxpRbuZhE8/VwKeAP7sNRzIJd/JZwRIM32Ypf3QdStTt2bPngJEjR7oOQyRN7Fowddga0OMg9pbriEQi5kRswnkU8ENgMra2s9R8EZt0vgLMwiafpSDM/VHLUII5xFnjOoxyUV1dvaMcJpdPQm/4EmMuA9PmJ6Iikp9hwFeBDdgk7Sy34eTleKDN36Y7jiUX+wOvuw5CADz2p4V3iKu5vVhisdjePXv2uM4JiwYlnyXILAHzgOsoRErYJGw/TuP/nOQ2nLxMAn4BPIOt6SxVZZl8hrXZfQlwHTfyuOtAQmUmA2jgVGKcyks08hBHB1W0MYbKysqgihMpgNgFYK4HczfETnEdjUgJSfblHIZtWt8XeNtpRLn7P9jm9U8DVwHXuw1HchG+0e5xZmEYw01c7DqU0PA4CY/b+BBbgdOJ8UvGcCJ2eoZAtlgs1rF3797iXpdIv8XmA++Cud11JCIh1wwsBN7C9utcDByCHUhUionngcB12MFQzwKjUOJZssJV8zmPIexlMR2c7joU51o4jkpOpYNTgT9hWIHhAm5icyFOV1VV9d62bdtqGxoaClG8SIBiXwLzMzCtEPNcRyMSMlEZQJS0D7am8+vYxHkUsNVpRMEqyy5g4Uo+O1gM/JibeMR1KE4k+DR7mEGMU6ngZQwrGMARXEfBp5ipqqpq37Jli5JPKRGxmWDuB/NdiJ3nOhoRx4bR2bT+NjbpPNFpRMH4Gjbp/AlwMBT+s9CRsptkPjzJZ4JT6OAobqS8JpSew7/4yeapdPAPKlhBjM/QyoZihlFVVfX6pk2b9hs9enQxTyuSj5OAX4P5NsQuch2MiAOT6Ew6fwjMgUjMEpMA/i/wOHA0sM5pNBK4cCSfZzKQDpZQwTmuQykKj0MxnAqcClRjWE4FM13OZ7pz586/PP/880d8+tOfdhWCSD/FdoM5GZuAbofYd1xHJFIkURpAlOoL2KRzE3AG8Fu34UihhCP5rGEJcD/LuN91KAUzhyaq/D6chuHACiARlhH9e/bsWfe73/3u+LPOOktLbEoJib0DJlkDugNi33MdkUiBpK5A9Dh2ANF9TiMKzuewzetVwMXYKZRECijB8cR5kTMZ6DqUwM1lBHEW0MJv8diMx/XMZarrsHowtbm5ebPr+TeLhTLt5B1d5mNgNoKJu45EpJ9aGhoaNgHG/9mS9vwJwL3Yms2F2CQ0LLHl6yjsEp7/A2U70PjDwN9cB1F+4qwnQXTm7JvDUDw8PB4gzrvEuQWPz7sOKwsDgI5t27a5zguLAiWfEWQ+AeZNMKU84bSUl5ZRo0a1t7W1GWOMaWtrM6NGjWoHzsX9CkQ9xRZEAvpx4DbgVeDsAMorZUo+i85jCQluch1G3jzqiDObFu4lzvvEuZMEMyixEWx1dXWPLl++3GVOWDQo+YwoM8n2/zQnuY5EuvgWdsocSdHQ0LApmdwltbW1mX322acdxysQ9RSbXwOaq5HAtcC7wDcI41zjxVeWyae75KiFqVRwO5V8nBt4x1kcuYuR4FQMMzCciuGXxFhBjBW0ssN1cDmaP3369G/+4he/GO46kEKLxWJQYl8OJFvmGOwH29HFOmfh7vwAACAASURBVGGRzlMMBbqWAyvgiQ6bexRNkf5fftYGpx2d66vtd+GuQnJ/Mr3ElquXgJ9hVyYqxc/9QvgwdjT/fq4DKQ9xniZeguuxenyeBLcQ5108HsDDYw5DXYcVkGHA3q1btxatBtIVopUwSCiYWMS2iuA2NsGQA4Mts99bZeG23BSodjEQBYpN993uhlOGNZ9utHAlHne4DiNrCT6Dx/X+oKHH8Pgv5jLCdViFUFVVdceiRYt2FzMRdAHdBEWyNTiAMl4DDgignKgpZL/KfBUiNt13uxsOhVm5UFLFOYoW3sFjf9eh9CrOUcS5mjgbifN7EnyNOTS5DqsIJg4dOrTdZWJYDOgmKNKXEQMHDvxBU1PTSwGU9TqE/J7vTqFHlOcj6Nh03+1OyWdRxFlDgjmuw8hoLuNo4UribCDOn4nzLTwOdR1WsdXX16+8+uqrO1wniIWEboIiPRkxcODAHwBmwYIF7xHMe+UN1KdNdN/NpCyTz+J2aI5zMTHG0cqpRT1vbzwOwTADOJUYg+lgBYYV3MzvXYfm0LiamponXnnllZrhw6M59ijPTvPdjeY3TOV9KniQvTzEze5WqxLJ0YiBAwd+fdeuXecsWLBg94UXXjhgxIgRQQ1++RtwOGX4IStdGNwPpAqb4cCfsQOPykbxVjjyOALDRXSEYO32BAd9sLxlB6OoYDkxFrBMS3n5/vjee+9dc8455yTuuuuuBtfBFFBwN8ETqWUbx2A4hgruxKOWGA/SwUMM4EGuY0tg5xIJ1gdJZyKR2H3hhRcyYsSIAQGfQwmHSGZKyAvK42E8h5PJtvBh4szH42HibCFBKy0c5yyeEtDQ0PDCrbfe6rqFvCAodPPPPJqJcw5x7iPODlpYjcc3meNu3j6RNF2a1zdt2lTI98pmbA2PlDc1u3e3L/Cm6yCKrTjZtsf5dDCVm4q80s+X2Yf3OJUOZhDjX4mxAlhBK/cWNY7SNbmysvLRp59+uuqwww5zHUugij6PXpzPYjiGGMcQ48APakWreJAbeLVocYj00Lzek4DeK29iV7V5K89ypLSplq+7fYFn0ZezAhjNo8xhjJPzxllOC/+BR3XRzx8N80ePHr21vT1aA+Bx+Q18HgcS5yzi3Emct4nzNC0sJM5nncUk5SCrms4CvVfews4jLOVNNZ/dlWXNZ7G4+oPTH3oAqqurF0+cOPGdAueDRUWY/jbiHIXHN0mwGo/t/jKt5zCPZtehSSTklHQG/F55G2gMoBwpbeG574bHMMow+SxW9berqnZV8Qekvr7+lgkTJpz80EMPRWIAUkiWr+vubBrZzTHgbzG2Y3gIeJB6HuS77HQcoZSOfjWv9ySg98oW4KPA3/MsR0qbPpO7Gwb8BVsDKgFTzWcE1NfX3zJx4sR3otAET6n8bcxhHB4XkuDXeBha+DVxvsocxrkOTUIrr5rOAr1X/g6RWYZYclca993iGob6QheMks+IqK6uXjx69Oit69atCygNdINS/Ns4j1rinECcHxBnAx4vE+dm4nyBs9WkKcEmnQG/V94BhgRQjpS20rvvFp6SzwJS8hkt8ysrK98v5WmYiMLfxjya8TibBPf6fUU1nVN5KkjSGfB75R3gQwGUI6Wt9O+7wVPyWUBKPqNnckNDwwszZ87cunnz5kA/7IqBKP5txPmsP2r+aTze8kfTn8U8DnQdmhREQZPOgN8rW4FI9BeXvETvvpu/RuyAPCkAJZ/RtbCmpmZXqa0FT9T/NpLTOSX4sZ+Iajqn6ChK0hnwe6Ud2CeAcqS0Rfu+mxslnwWk5DPaxtXX168cOnRo+6JFi3Zv3bq1oB+GQaDc/jaS0zm1+NM5JTSdUwkqatIZ8HvlXZR8Srndd7Oj5LOAlHyWh4lVVVV3AHunT5++efny5Wbbtm1F+YDsL8r5b+NsGonzBeLc7A9a2uAPYjqB86h1HZ504yTpDPi98g9gcADlSGkr3/tuz8oy+dQ8n1IIw4DT6urqZu7YsWNKc3PzW1OmTKmeMGHCkKamJkaOHEljYyP19fVUVlY6CTC083y6MIdxVPJZOjiGCo75YOnPDh7kZv7oOrwyFsg8nfkK6L2yDdjP/ynlS5/J3TUCz6EVwApCNZ/lawAwFbiwqqrq9sGDBz9VW1v7RnV19Y5YLLZ3xowZj2L/n4q6NTU1vVSEay896dM5xXlF0zkVndOazgLVfG4DBgVQjpQ2fSZ3NxS7CENZUc2niPRsHs3s7VIr+seUWtE1rsOLmFDUdKYLqOZzO3YFlx15BySlTJ/J3Q0F/pcyW35WyaeIZC/OZzEcQ4xjiHHgB0t/VvEgN/Cq6/BKVCiTzqSAks8d2A9XLQ9b3vSZ3J2SzwJS8iny/7d3//FR1Xe+x18TIjADGMLEYhuLEX8kdnsX1rJdu5HeltsK3bpt1daEhrRayQ9hLXUf0rqXRWvycFut91pu1SagdSvJMvgDbbtusa6UbpKuZYGCrZpohSw2VXRiiMAMv8/948wMk5lJMgkzc2bm+34+HnmEnMw58zlfZs688/1+zzn55iY+yAk+jcWnKODTWLyBxXO4eI51/LvT5eWArA6dYSkKn0HsD1mFT7PpMzmekeFzLCy32/1P2HP4xrxuqotJ4/NOdLvd/1ReXv5gyqsRyWexl3Oq4ye6nFNCWTWnczSk5vh9BJicgu1IbtOcz3jFwLtOF5HNrC9/+cuH3G73AeDvx7puOgpKw/P+vdvtPvDlL3/58DjWFZGw8OWcGnhIl3OKyKnQGUZqjoVHgUkp2I7kNn2uxlP4HIVlWZb1m9/8xvrMZz7zrtvt9gMrSe4MxmwOn1OAlW632/+Zz3zm3d/85jepPOCKCNiXc6pnJUv5BfVY1PEcdXyTG/kLp0vLgJwMnWGkLnyOZ9RM8os+V+MpfI5iyAFp27Zt1pe+9KWDhYWFR6dNm9YC/PlI62aqyDE87/+YNm1aS2Fh4dGqqqpD27ZtS8cBV0RiRV/OqZ5X8vhyTjkdOsNIzbHwGHBWCrYjuU2fq/EUPkeR8MC0d+9e67bbbjtRXFx8eMaMGTuAeuzGHLKuA/Umet5ioN7r9e6cMWNG4Lbbbjuxd+/edB5wc81qYDNDJz6XAxtillUy9LqZNSP8LvqrMvQYL9AS+l6T4HGrY2qqZHjlwC2j7Jc79HyrR3mcOOEmyqlnOUt5OnTrz07quYMbR/x/z2Z5ETrDSM2x8DhQmILtSG4z8XN1NAqfoxj1ILVp0ybrqquuGnS5XCeLi4t/BTQCF+Bs+LwAaPR6vf/hcrlOfv7znz+4adOmTB1wc81q4sNkbPisYWhAHSnYrR5heThY1ITWD88D9Ia2nyioJtrOPaHvsQE5WmVoG8NtR7JJHZ9iKXdTzw7q8FPHBur4GjfxwUyWcdZZZ909ZcqUdwBrypQp75x11ll3j7JKXoXOMFJzLDyBwqeY+bk6munAgNNFZLOkD1aBQMDy+XzW4sWLg9OnTw9Onz7dKioqehT4ClCR5jorgNqZM2f+S3FxsTV9+vRgdXX1EZ/PZwUCgUwfcHNNOMw9C5EzlKPDpzf079izl4dbnih8loeeIxw2Y8NneL3oAFwT8zMxv4tdP1Y47MZuV7LdTXyQOr7GUv6Fet6hjp0s5W7q+FQ6n9br9e6ura099NJLL1mWZVkvvfSSVVtbe8jr9e5O8PC8DJ1hpOZYeBJw5l66kk1M/FwdjcLnKMZ98NqxY4f1/e9/3/rCF75w8JxzzhksLCwMer3eV973vvdtAv43diD4BHApMJPhL8kxOfT7S0OPr/F4PHece+65T3m93lfOOuusI+ecc87gF77whcPf//73rR07djh9wM014XBWw+nQGB0+wz2IsUEv3PsZG+wShc/YIJmo5zM2yMYG1rBwoAx/TyS653S47UiuiL6cUx2BdFzO6ayzzrq7trb2UKLjQm1t7aGoHtC8Dp1hpOZYeAooSMF2JLeZ+Lk6GiPDZ0aGQS677DIuu+wyVqxYMRVgYGCA3//+9xU9PT0Vr7/++tV/+MMfgr29vcfffPNNa2BgoPDo0aOTTp48OWHChAknXS6XZVmWK/zz5MmTjxUXF58499xzKSsrm3jRRRdNvvDCCykvL+fDH/4wxcXFupzHmdsMtGOHOn8Sjw8CfUluezawJWZZQ+grbAnQE/WzHzgb8DD0ItVdoS+ivseqCNXWz+lb+82K2b7kinX8Gvg1cCfL8XKMT1PApzjJSuoIAs8BzzGV57hvfBc0nzhx4tduu+22hFfxuO2226Y89dRTdRMmTPAcOXLk7xoaGo6tXLmS0tJSnck9MhcKHiIyDhn9a/vkyZNWMBi0Dh8+bAWDQevkyZMZfX7MPFBGD0uHeznnMnrPZ+y60cuieyTDPaTRJ5IMN+wevd5I8z5HE57HOtwJUpIvoi/nNJtfMvyJb6N+jXZsmDt37ont27dn6GjkrDNpx6ivX6b7v19ygomfq6Mxsucza4dBCgoKmDx5Mh6Ph8mTJ1NQkLWl5qudoe9fjlrWDRRh9xxG8wIfAraPss1ke0i3AKWc+fB4OXAFdu+nK/RVAVyFTjzKPw/zW9byPR7iSvbwSU7/n4/pa8qUKf6XX3454VO8/PLLTJ06daC7u/uH8+bN4xvf+Maxvr5kO/1z2rjaMurrk5kvWSQnGHnLUSU6GU4QuA+4ktOXzuoH/hVYw9Cz3e8CXia5oew9QNkoj1mAHVLDw6YlwHucHjZP1jxgL7Avapkfe3/SfeKb5Khjx4796Lvf/e7hRL/77ne/e/jo0aPrjhw5cjNwXmtr69rzzjvPpBAqIpJRTo/+ZBRmDg8kGjqPvbQSjHydz9jtJXO2e+wQXeww/Ehnuw9nuJOgwnWNdoa8GExnu5+GmcdCSQ+9luIVAQecLiKbOX0MzCj0Jkmn0S4cH+1M5nuKjJuu82lDx0JJHb2W4il8jsLpY2BGoTdJOo0lUI4lqIpkg7wKoehYKKmj11K8s4FBp4vIZk4fAzMKvUlE5MzkRQhFx0JJHb2W4il8jsLpY2BGoTeJiKRGTodQdCyU1NFrKZ7C5yicPgZmFHqTiEhq5WQIRcdCSR29luIpfI7C6WNgRqE3iYikR06FUHQslNTRaymewuconD4GZhR6k4hIeuVECEXHQkkdvZbiTcO+jrUMw+ljYEahN4mIZEZWh1B0LJTU0WspnsLnKJw+BmYUepOISGZlZQhFx0JJHb2W4il8jsLpY2BGoTeJiDgjq0IoOhZK6ui1FE/hcxSOHgAzDb1JRMRZWRFC0bFQUkevpXhTgYNOF5HNHDnwOQW9SUQkOzgaQtGxUFJHr6V4Cp+jyOgBz2lf/OIXtzjd4CIiURwJoSgwSOrotRRP4XMkhYWFRw8dOpSRg53TDh06ZBUWFh51us1FRBLIaAhFgUFSR6+leAqfI/F4PP379u1L60EuW+zbt8/yeDz9Tre5iMgIMhJCUWCQ1NFrKZ6R4bMg2QdOnDjx3f3796ezlqyxf/9+CgsL/U7XISIygr4jR47cDJzX2tq69rzzzuMb3/jGsb6+PqfrEpHkWYDL6SIyLenw6XK5/nvfvn3prCVr7Nu3D8uy/tvpOkREkqAQKiI5Jenw+d577/3+9ddfT2ctWePVV189cfDgwd85XYeIyBgohIpITkg6fJ48efL3O3bsOJTOYrLFjh07DgKvOF2HiMg4KISKSN74y9mzZx9Iy4z2LHP++ef3A3/pdIOLiKTAGZ2YhE4SkdTRayneFOCw00VkM1dBQcGJgwcPpinyZYeDBw9aLpfrOAZOABaRvDauEIoCg6SOXkvxPCh8jqyoqGjbM888k+b456xnnnnGmjJlyq+dbmsRkTQZUwhFgUFSR6+leAqfSVh98803BzKUAx2xbNmyQeAfnW5oEZE0SyqEosAgqaPXUjyFzyTM+8AHPpDX8z5nzpzZD8xzuqFFRDJkxBCKAoOkjl5L8RQ+kzFt2rS+bdu2ORQN02vbtm2Wx+Mx42KmIiJDJQyhKDBI6ui1FM8NBJwuIuu53e67b7nlluMO58S0uPnmmw8BzU63sYiIg4aEUBQYJHX0Woqn8JmkS6dNm3bY6aCYDlOmTDkIXOp0A4uIZIHSyZMn/+Ciiy7a63QhkjcUPuMpfCZr6tSpWx555JFTTofFVHr44YePT5w48Vmn21ZEJMtMc7oAyRsKn/EUPsfgby+55JJ+pwNjKl1wwQVvAX/rdMOKiIjkKYXPeG4g6HQRmZb07TVj/Kyvr++NJ554IqXFOOXxxx8/+ac//emPwM+crkVERESMoUA+RteWl5fnxWWXLrzwwneAa51uUBERkTymoBVvMur5HJMn33zzzZfXrl2b0y+mlpaW42+++eYrwJNO1yIiIiIiI6s8++yzA4ODg053Xo7L4OBg+Az3SqcbUkREJM/ldGdVmqjncxy6Tp48+eNbb731aEqqybCvf/3rg4cPH34Y6HK6FhERETGOBbicLiIXTZo6deqbTz31lNMdmWPy1FNPnZo0adI+YJLTDSgiImIA9XzGmwQccbqIXPXZkpKSwDvvvON0pkzKO++8Y02fPv094LNON5yIiIghFD7jKXyeieLi4u9fddVVQaeDZTIWLlx4APgnp9tMRETEIAqf8RQ+z9T06dM7V61adcLpcDmSf/iHfzjs8Xi2ON1WIiIihlH4jKfwmQLvmzp16puPPPKI0xkzoR/96EcnQvM83+d0Q4mIiBhG4TPeRCAnT9rONh8tLCw8/swzzzidNYd45plnThUUFBwFPup0A4mIiBhI4TOewmcKXVVYWHhi69atTmdOy7Isa+vWrVZBQcEx4CqnG0ZERMRQCp/xFD5T7LrJkycfdzqAbt261Zo4ceJR4DqnG0RERMRgCp/xFD5TraCgoKqwsPCEU0PwzzzzjDVhwoTjKHiKiIg4TeEz3lnAMaeLyEdXFRYWHs/0SUiPPPKIFZrjqaF2ERER5yl8xlP4TKOPTps27a1Vq1Ydz0Tw/Na3vnXQ7Xa/gU4uEhERyRYKn/EUPtPsfUVFRVsXLlx4cP/+/WkJnfv377c+8YlP7J84ceIv0OWUREREsonCZzyFz0yYNGnSd6ZPn374iSeeSGnwfPzxx49PnTp1EGh2eh9FREQkjsJnPIXPDFo0derUP371q1894vf7zyh0+v1+a/HixQcmT568F1jk9I6JiIhIQgqf8QqB404XYZIJHo/nBx6PJ3j//fefGk/wXLNmTXDy5MmHJ0yY8H+BCU7vkIiIiAxL4TOewqdD/qq4uLjjkksuGXz88ceTCp2PP/64dcEFF7wzceLEfwf+yukdEBERkVEpfMZT+HTY1VOnTn3xQx/6UL/P50sYOtvb249dfPHFb06cOHEHcLXTBYuIiEjSFD7jKXxmiWunTZu27QMf+MDAPffcc3zPnj3WPffcc2TmzJn+SZMmdQHXOl2giIiIjJnCZ7xC4ITTRchpH/d4PD7AmjRp0r8AH3e6IBERERk3hc94E1D4zEp6sYqIiOQ+fZ7HMzJ8FjhdgIiIiIiYQ+FTRERERDJG4VNERETEGRbgcrqITFP4FBEREZGMUfgUERERkYxR+BQRERGRjFH4FBEREXGO5nyKiIiISEYYee1ThU8RERERyRiFTxERERHJGIVPEREREckYhU8RERERZ+gi8yIiIiIi6aTwKSIiIuKcrU4XIPGMvAyBiIhIntHneWLGtYt6PkVEREQkYxQ+RURERCRjFD5FREREJGOy//T+2fyS/8VbFOCjlZ84XY6IiIiMi5GXFUqCce2S/TtbTxEW1RRQjUU5p/BRiI8WtjldmoiIiCTNuJCVJOPaJbd2tp4KLKqBaiAA+HDhYy37HK5MRERERmZcyEqSce2SuzvbwCc4RTUuqnHRxalIED3udGkiIiISx7iQlSTj2iUfdtZFA9WhIPopLHxY+HiI55wuTERERCKMC1lJMq5d8mtnv8YHmBAalncxI2p+6O+dLk1ERMRwxoWsJBnXLvm7s/VcBlRjUY3FPlz4mMgGHqDf6dJEREQMZFzISpJx7WLGztbzWU4H0adx4WMdTzpdloiIiEGMC1lJMq5djNpZapmCJzI/dC4WPmAD6/i106WJiIjkOeNCVpKMaxejdnaIG7mIgsj80FOAjwn4+CF7nC5NREQkDxkXspJkXLsYtbPDqucKCF226SQ7KWADU/BxH0GnSxMREckTxoWsJBnXLkbtbFLq+RL2/NCrsELXDl3Hz50uS0REJMcZF7KSZFy7GLWzY3Iz53AsND8USinAxyl8rGOX06WJiIjkIONCVpKMaxejdnbclvLnTIicqPQ24OMoPn7MW06XJiIikiOMC1lJMq5djNrZlKjnSsLzQy2eBXysZaPTZYmIiGQ540JWkoxrF6N2NqVuZhJHQ2fLW1weNT/0V06XJiIikoWMC1lJMq5djNrZtGmgDCsSRCcCPsDHOl51uDIREZFsYVzISpJx7WLUzmbEUi6Pmh/6MuDjBBv4EQedLk1ERMRBxoWsJBnXLkbtbMbVcTX2/NAvQmhYvpWfOV2WiIiIA4wLWUkyrl2M2lnH3EQxJ0PD8qe4CBc+CthAK9udLk1ERCRDjAtZSTKuXYza2azQwIei5oe+B/iw8PEQf3S6NBERkTQyLmQlybh2MWpns85SFkTND/0PCthAPz4e56TTpYmIiKSYcSErSca1i1E7m7W+xASmh3pDXXyC0/NDn3e4MhERkVQxLmQlybh2MWpnc0IjpaFbelZziukUsCEURF92ujQREZEzYFzISpJx7WLUzuacBuZF5ofCHqzQ/eUf5l2nSxMRERkj40JWkoxrF6N2Nqc1chVWaH5oAU9yCh/reMrpskRERJJkXMhKknHtYtTO5oWvMY0JoXvLw4c5PT/0P50uTUREZATGhawkGdcuRu1s3qnjEuyTlKqA45wOor3OFiYiIhLHuJCVJOPaxaidzWsNfDwyP/QU23Dh4xg+fswRp0sTERHBwJCVJOPaxaidNUY9VdgXsV9EAT5O4uMhnnW6LBERMZpxIStJxrWLUTtrnKXMxBWZH3ou4GMCG/ghLzpdmoiIGMe4kJUk49rFqJ01Wh1zsXtDqyngT4CPAny08LbTpYmIiBGMC1lJMq5djNpZCWlgUdT95f8NFxtYy+NOlyUiInnNuJCVJOPaxaidlRi34OZwJITOi5of2uF0aSIikneMC1lJMq5djNpZGcFSLgjNDa3GRSEuNjABHw/yB6dLExGRvGBcyEqSce1i1M5Kkur469CdlKpx8SLgoxAfD3LI6dJERCRnGReykmRcuxi1szIODVyDRTUW1+BiA+BjLc84XZaIiOQc40JWkoxrF6N2Vs7Acrwcj8wPLQN8WPh4iB0OVyYiIrnBuJCVJOPaxaidlRT5Gh/mLKo4RTUwQAE+juPjR/zJ6dJERCRrGReykmRcuxi1s5IGdXwKK3QhexdbAB/vx8ednHK6NBERySrGhawkGdcuRu2spFE9Z4Xmhlbj4gpc+LDnh/7S6dJERCQrGBeykmRcuxi1s5IhN/FBTkbmh04FfJzCx8O84nRpIiLiGONCVpKMaxejdlYccCMfxRW6bJPFqxTg4wg+fswBp0sTEZGMMi5kJcm4djFqZ8VhdXwuan7oY9jD8k87XZaIiGSEcSErSca1i1E7K1minqKo+aEVUfNDf+N0aSIikjbGhawkGdcuRu2sZKGbKI+aH3oE2IALH2vZ53RpIiKSUsaFrCQZ1y5G7axkuQY+wanQsLzFrynAx7v4eJxjTpcmIiJnzLiQlSTj2sWonZWc4aKOKgqo5hRXAhsowEcrzzldmIiIjJtxIStJxrWLUTsrOaie90fNDy2Jmh/6O6dLExGRMTEuZCXJuHYxamclx9VzGadCPaIu3uAUvtD8UL/TpYmIyKiMC1lJMq5djNpZySMN/E3U/NCfYuHjIZ5wuiwRERmWcSErSca1i1E7K3molilMilw7dC4WPibgo4Uup0sTEZEhjAtZSTKuXYzaWclz9VyIFbpsky08LP+6k2WJiAhgYMhKknHtYtTOikHquQJCJypZ7MQVCaIBp0sTETGUcSErSca1i1E7K4Zq4Iuh+aGfw8IXmh/6b06XJSJiGONCVpKMaxejdlYMdwPnMCEyP/Q8TuGjEB8t/Nbp0kREDGBcyEqSce1i1M6KRNTzPzg9LO+ngA0U4uNB3nK6NBGRPGVcyEqSce1i1M6KJFTPlZwOor/AhY91+JwuS0QkzxgXspJkXLsYtbMiI7qZSRyjKjQ/9K9xsYFT+FjHr5wuTUQkDxgXspJkXLsYtbMiSbuR8ymkOhREJ0Po+qE/pMfp0kREcpRxIStJxrWLUTsrMi5LuZwCqkJ3U3oF8DEJHz/gPadLExHJIcaFrCQZ1y5G7azIGavnC9jzQ6/DCl07dB0/dbosEZEcYFzISpJx7WLUzoqkzE0Uc5JqLKqAiwEf4GMd/+VwZSIi2cq4kJUk49rFqJ0VSYsbuTRqfughwMdxfDzCG06XJpJGdwDfDv27F7jAsUokVxgXspJkXLsYtbMiabeUBbhC95d38R+Aj/fj405OOF2aSBp8FvjX0L/1eSKjMS5kJcm4djFqZ0Uy5g4KeDMUQk+xACLzQ//d6dJEUiQcPK8KfdfniYzGuJCVJOPaxaidFXFEI6WcCgVRi+mcnh/6ksOViYxXdPB8BnsI/k5HK5JcYFzISpJx7WLUzoo47iY+wqnI/NBewMcRfDxKv9OliSQpNniKJMu4kJUktYuIZEgdV1FHG3WcoJ7HaOAap0sSGcVnsT8oPzvM7+8I/d4C9maqKMkZltMFZCnj2kVJW8RpX2MahVRhzw/9cwrYgAsfrfyn06WJREm2x1MnIclw1MOXmHHtYtTOimS9Bi7GiswPPQH4sPDxkHqRxHF3ANtJLnjqJCRJxLiQlSTj2sWonRXJKQ18yzWBLQAAIABJREFUHKgKzQ/9L1yh+aE/5ojTpYkkoJOQZDTGhawkqV1EJAvVcR31bKKeI9TzzzSwyOmSRKKMNhdUBAyc25gktYuIZLGlzKSOFdTza+rZSz3foYE5TpclY3PRRRftBeqdrmMEd4zhsQqekiyFrMSMaxd184rkqgbmROaHwltYkfmh+50uTUZlXXzxxYNvv/32zwYHB2udLiaBZIcBddklGQsNLyemdhGRHNTAIur559Cw/CbquM7pkmRElmVZ1vXXX394+vTprwEfcbqgGMn2xNyBejwlecb18CVJ7SIiOeyrTKaO66lnM/W8Sz0Phk5ckuxihbW2toavi5lNw/D6MJR00OsqMePaRd28IvlqKRfgohqLagooJHx/+VZec7o0wbKs0583O3bsYPHixdk0DK9hQEkHva4SU7uISB5q4GPUs4Z69rOU56mjjq8xzemyDGYlkkXD8Mb1xEhG6HWVmNpFRPJcA9dQz2PUcYIG2qjjKqdLMlDC8JlFw/D6MJR00OsqMePaRd28Iqb6Cl7cVIXOmJ/N6WH57U6XZoAhw+6xsmAYXsOAkg56XSVmXLsYtbMiMow6/gwi80MPAD4K8NFCn9Ol5akRw2fYDTfcEHj66af/dODAgWpgR/rLijDuw1AyQq+rxNQuImK4Oj5FPeuo5yD1/JR6vswdFDhdVp4Zdtg9S4bhjRsGlIzQ6yoxtYuICAB3UEg9S6jnX6njPRpYy1IWOF1Wnkg6fFqWZW3fvt26+OKLDxQVFa3PVH0Zeh4xi15XiRnXLurmFZHR3cQHOUk1FlXANArwMQEfD/KK06XlqKSG3WNlcBhew4CSDnpdJWZcu7gwMHFL1jHqTZfz6vhLCN3W08UfIBREf8iAw5XlknGFT4C1a9fS0NAA0ACsTWVRUYz7MJSM0OsqMePaxcUZHARFzpTL5QLD3nR5pY7PRe4vX8BjgI+1PO10WTngjI67GTgb3rgPQ8kIva4SM65dFD7FUQqfeeJmzuZoKIRafIgCfJzEx0O84HRpWSolx900DsMb92EoGaHXVWLGtYvCpzhK4TMP3UQ5JyNB9AgF+DiBj4f5b6dLyyIpO+6maRjeuA9DyQi9rhIzrl0UPsVRCp95ro7/SQHVnKIaFy8APibh4wccdbo0h6X0uJuGYXjjPgwlI/S6Ssy4dlH4FEcpfBqkLnQRexdX4sKHPT/0F06X5ZC0HHdTOAxv3IehZIReV4kZ1y4Kn+IohU8D1fN+oAp7WP59gA8LHw/xosOVZVLajrspGoY37sNQMkKvq8SMaxeFT3GUwqfhGvkLTlBNAdVY/JECfBzDxyO843RpaZbW424KhuGN+zCUjNDrKjHj2kW3zBMR57TwWx7iW6zlfCzuAuZRyB+p50nq+ZLT5eWqj3zkI7z66qtFV1999TXTp09/DfiI0zU56ELgl6HvJq4vknWSCp/BYJDGxkaam5uHLG9ubqaxsZFgMDhkmcvlwuVyMXfuXHp6eiK/6+npYe7cuZHfh79itxurq6tryOMXLVpEf3//qHX39PSwePHipB47Fl1dXZH9bm9vj9QfvXw44baMbQOXyzXqumcqmfZIV5uJjOoh/o1WvoqLYiye4RR11OGnnvup5wqny8tFjzzyiOfuu+++CNhOZu8Nn00+B3ww9N3E9UWyUlL3Fvb7/dbChQutzs5Oy7Isq7Oz01q4cKHl9/sty7KsQCBgNTQ0WE1NTZF1uru7rTlz5kTW6e7utq688kqru7t72O3Gamtrs+bMmTNknba2NquhocEKBAIj1tzd3W1VV1dHakyHtra2yD53dnYmVVd0fbHt4bRMtFk0dIctGUk9F1LHKup5kQZ+F/p3PvQAZeT9FTaOe8Pn0/tyF3BL6LuJ62eTfHpdpZKR7ZL0ASwcOHt6euIC43DBK3r5cGGrqanJamtri3u+4YKp3++3qqurI9sJPw77P9BqamoasiwcksMBOfy4RIE3OkwmCtwNDQ3W888/H/ke/Zzh369cuXLI8w4nUXt0dnZaV155pTVnzpxIu7W1tUWeJzqINzU1WStXrrTmzJljAUPav6mpaUht4ecLB8vYtmhra0vYZuE/IGL3J1Gd44GhbzoZh0YqqeMH1PMOdTxHAzdSyxSnyxqncb1fztT1119/OMlh+Hx5X34S+G3o378FFhi2frbJl9dVqhnXLmOa81lZWUllZSXl5eWRf4dt2bKF+fPn43a7h6xTUlLC3r172bdvX8Jt9vf309XVRVlZWdzvuru7AaioqBiy3Ov1smHDBsrLywkGg6xatYra2losy6K7u5vOzk78fj9r1qyhurqa9vZ2vF4v9957L6WlpViWRWdnJ8uXLx8yLQBg3rx5HDx4kGAwiN/vZ/r06fj9fgB6e3uZP38+kyZNAuBjH/sYbW1tNDU1sXr1agBaW1v5/Oc/TyAQoKysjAcffHAMLWzbv38/GzdupKWlhZ07d7J+/Xr8fj+WZXHttdfy2GOPRR774osv8vzzz9Pd3c0LL7zAzp076erqoq+vj0AgQCAQ4ODBg3H7uWnTpkhb+P1+Ojo6AIa0GcCKFStYuXIllmVRWVnJqlWrIlMDouuM/X8XSbkWuljHzazlHCxaOcVncDNAHY/SwN84XV4uMHAY/qvAo6F/Pwp8xbD1RbLSmE84WrBgwZDvoykpKWHGjBmRn/fv309FRUVknmNJSQm1tbVDgmy0srIyPB4PED9ntKurC7fbTUtLCzU1NQmfLywccsN1X3bZZVx++eWRYBld7xtvvMG+ffvw+/0sXryYF198kf7+fnbv3s28efNG3N+FCxdSUVGB2+1m/vz5SbVRrHPPPZeSkhLADvybN2/G6/UCMHv27CGPraysxOv1MmvWLC6//PK4bbndbu655x7Ky8uHfT6v10tLS0vkOcL8fj/FxcUsWrQIgOuuu27IHxLRdYpk1EM8wTq+CHwA2MZJ/jd17KOee6jnMqfLy2b19fVs376diy+++J4xDMPnohnY4e3HoZ9/HPo5/gMiP9cXyVpjCp/9/f00NzfT1NREc3PzuE5KmTlzJt3d3ZHex4ULF0bCTSK9vb0EAgEAysvL2bVrF4FAIHwdO2DoCUklJSW88sorw27viiuuwOVy4fF4aG1tpbe3d8jvvV4vH/rQh/D7/Wzbto3zzz8/su/vvffeqGErOiyPV/Q2Yk9QWrJkyZDHxoZRsAPp/Pnz8Xg8uFyuSC9mtHBYjw7ysfx+PwMDA5GfY4N9KvZV5Iysxc867uchrsDFZ4HjWDzOUn5DHbeErikqMQw5Gz4c3N4N/fwupwOcCeuLZK0xhc8HH3yQyspKVq9eTWVl5ZAh5QULFtDR0RF3tnZ3dzdFRUXMmjUrbnvhofvoodxo4eH28PB7IuFA3NnZGRlCvvTSSxM+tri4OBJ8w1/hEBZtwYIFvPTSSxw6dIgPfvCDTJ06la1bt1JaWhrXO5humzZtAiAQCGBZFm1tbUmtV1NTg2VZBAIBOjo6EobL1atXR9rs/vvvjxuaLykpobi4OPKz3+/n3Xffjd2MSHZYy+9YyyrWcSET+Efgw8AfqOMnLGUxhl1HLxl5Pgz/FU73GoaNJ/zl6vrZ6NtOF5AEN1CMPaoyG/gz7D/OKoFPAVcBXwJqsd8zK4BvAXcA3wXWAK3Y0yQeA34GPAd0Yr/PXgJeB/6E/QdFENiaiR3LJkmHz/b2drq6uli2bBkAy5Yto6urKxJqLrvMHum69957I+v09PSwfPlyamtrh50TuGzZMnp7e9m5c2fc77xeL7W1tXFzMzdt2kRra2vC7W3evDlhz2e4RzM8XzI8hJ8olJWUlLBlyxYOHjyIx+Phox/9KFu2bEl6qkG69Pf3s3796KNk0Zd/Ajj77LPjemybm5uH9IgWFRXFPaakpISBgQE2b94MwGOPPcYFF1yQ8A8JkazSynOs40YGKKaAJ3FRSz0D1NFCA59wurxskqfD8J/E/mPjlzHLf4l9cscnk1g//PhcXD9b3TmGxw4XAq/ADoF/ix0Cv4IdAr/O0BD4fewQ+GPsEPhT7BDYgR0Cf098CLSA/tDy/wo9fmNoO3eHtt8Qet5Ph+qZHarTBQwAe7BvbfvvwOPYdxm7G7gttO51oXXnYV+7dQa5+/85boXJPKirq4slS5bQ2dkZ6fnzer2sXr2a5cuXs3HjRsrLy2lpaYlc5xNgzpw5kd8NJxwww2EotmexpqaGefPmUVVVxe7duwF7XqXf7488tra2liuusC8D2NraGpnLWVFRwcDAADU1NbS3t3Prrbdyyy23ROpra2tLONd01qxZTJ8+nTlz5uB2uykpKcHlcsWd+AT20HN4KDwd4XTRokWsX78ej8fDwoULuemmm/j5z38+4vVAr7nmmrj9LC8vHxLgly1bRk1NTaT26P/b6DZbs2YNVVVVLFmyhIULF9Le3q6TiyR3PM4x7B6IR7mR8ymgilP8X+rwAD5c+FjL8EMrhggPw99www3XPP3005cfOHDA6ZLOVKJew7BHQ7+PDXb5tH4quYHJ4/g+nnWivx/BDoTj+T5wButLBuj2muIo3V5THFHPXwHVvMqH2cqnnCghW4+7tbW1SU/vSYOtkJKe6a3AtZyeLxltBnbvljePf/8kqWvHyxl/CDyT75LHFD7FUQqfYqisPO7ecMMNgaeffvpPBw4cuIj8fl/+M7AbuC/B724B5gDX5/H6Io7L7FWORaJg4MV1Rciy426COyDl+/vykwx/x6DfktyczGxdf1cS64s4aszX+RQRkfyxdu1a5s2bx2uvvfbNwcHBWqfryZDwfMnYkDbciUq5tL6VxPoijlL4FBEx1A033BD41re+9QfsM2/XOl1PhiW6bNFIJ/rkyvqPJnisSFbRnE9xlOZ8iqEcPe7u2LGDxYsXD7799ts/G6a30yL/35exJ+6MdiJPvq0v4hj1fIqIGMTQYfZEYu8YFHtHoXxfX8RRzs50F6OR/yc2iCTiyPvt+uuvP5zk7TRNeV9+EvsEH0Lfx3qx5mxbXycaSU5I6iLzIiKSu5IYZjfVL7GnF9wS+r4lx9fXiUaSEzTsLiKSxzTMPqofA8tJ/kSffFtfJOMUPkVE8pThZ7Mn66fAG6HvJq4vknE6210cpbPdxVBpPe6mYJjdhLPdRcQh6vkUEckjGmYXkWynE45ERPJE+N7sQDWww+l6REQSUfgUEclxOptdRHKJht1FRHKYhtlFJNcofIqI5CidzZ52XmAz9glYFlAzynKAymGWx1od9bjNoW2KGEHhU0Qkx+zYsYNLLrlk8Kmnntp04MCBi9H8znRZBqzHPvO/AliJHS6HW+4F/i60rAK4isShsgYoBTyhbTQD7cM8ViTvaM6niEgOWbt2LQ0NDQDfRL2d6dYc9e99wAujLK8AigE/EAAGQ8u6oh7vxQ6l3waCoWVdoa9F2CFUJK8pfIqI5Aidze6oWUAR0D3C8gqgFzt4hpUxNHyWYF8Ufl/MdvakrlSR7BYZdu/v72fx4sX09PSk5Ymam5tpbx/5D7rm5mYaGxsJBoMjPqarqytueU9PD4sXL6a/v/+Max3ueRPV39PTw9y5c3G5XJGvRYsWDVvHcPUnErvt5ubm0VciNf+X6W5PEUmehtkd58Xuqfw20J/E8pH4gbOxh9xFjJQ1cz57enro6+sDYN++2D8Is9vMmTPp7u7Gsiwsy6KyspIHH3zwjLbZ1dVFVVUVGzdujGwXGDWci0h+0dnsjisH7seey9mTxPIyhgbL3pjtBYD3sHtAo70P2H7G1YrkgIThMxgM0tjYSHNzc1yvW7hH7L777sPlcjF37txID1tXV9eQcNTe3h7pMbz99ttZsmTJsL2f27dvZ/78+cyfP5/HHnvsjHZqpPrDNX7zm9+M66WM7t0Mb6Orqyup+qMtWLCAvr6+cYfEYDDI+vXreeCBBygvL48sv/XWWwHYuXPnkPrgdG/n7t27WbVqFT6fj6qqKnbv3k1jYyNr166N9KKG9yG2dzPcNn19faxYsQKfz0dNTY16P0UcorPZHVcO3Ah8jaE9m8Mt7wYGsIPlcMP0QeBh7N7S8AlGNcBUhoZYkbw1Ys9nX18fgUCAzs5OnnzyyUjIfOWVVzh06BCWZbFy5Uruu+++EYNWTU0NTU1NtLW1UVMTf+WJYDDI7t27mTdvHosWLaKvry8lgWe4+ltbW5kzZ07SvZSj1R9ry5YtzJ8/H7fbPa669+3bx+DgIBUVFUOWu91uSktL2bJly7DrTp48mbvuuovq6mo2btzIJZdcAsCmTZt4/vnn6e7u5tFHHx1xSH7GjBmsWbOG6upq2tvb8Xp1AqZIJmmYPSu4gVuwz2QPcPqySAuGWV6JHUTvxw6c3aF/x36YVYZ+Vw3cBXwaaAOagJbQ84rktRHDZzhAVVRUcOmll0aWz5w5k+uuuw6ARYsWMTg4eEZD5eF1Z82ahdfrpbS0lO7u2D8Wx264+hcuXMiiRYsAuO6663j55ZfPKOzu37+fioqKSC9rX18f11xzzRnXn8js2bPHtV5tbS1er5fy8nKuuOIKtm/X6I5INtIwe9YIAo3Yl0KK/toyzPLwZP6uBMuiRf++EXgu5mfNq5K8N2L4LCsrS7h8xowZlJTETlcZv+3bt/O9730Pj8eDy+Xi9ttvH7F3L1nD1V9WVobHk7q53rFzPmtra7n66quzarh6uLYQkeyhYXYRMcG4Tjh699138fv9APj9ft59992Ej9uzZ/QrR/T397N+/Xo6Ozsj4c3v9/Pyyy+n7cz73t5eAgH7Shh+v5+BgYG4xwQCAXp7e8e1/YqKCoqLiyNtNFazZs2iqKgorvc3GAzS0dHBggUL4tYZ6f8BiOxLMBiMnNg13GNEJLM0zC4iJhlX+Ny/f39k2Hb79u1ccMEFzJo1C4AXXniBffv20d/fn9QlhcIBK3p+o8fjoaioKG1Dw88++2zkebds2UJlZWVkXmNHRwfBYJDu7m6effbZcW2/u7ubgYGBcfcOu91uamtrWb58+ZAAfu+99wJw2WWXRZaFe4i3b9/O/v37h91meL/27dvH3r17mTdvHmDP3+3u7o4EWxHJLA2zi4hpxhU+L730Ujo6OnC5XKxfv5677roLt9tNZWUl1157LRUVFdTU1LBw4cLIOrNnz054tnhs+AM7fM2fP5/169enZei6urqa+++/PzI/M3wW+bJly+jt7cXj8fCTn/wkfBeREeuH+Dmfy5cvZ82aNWd0ok5lZSUbN26kqqoqsl2AlpYW3G43brebW265hSeffBKXy8Xbb78dmdcaDu9VVVW8+uqrAJSWluLxeKioqOD222+nvLyc8vJyVq5cyRVXXMHHPvaxIaG2pKSEgYEBne0ukkYaZhcRU1lj0d3dbVVXV1t+v39M66VKU1OT1dnZOe71Ozs7rYaGBisQCKSwquSdaf1jFQgErIaGhow+51hgnyUqYhrr4osvPlBUVLTe6UKGofeliKSNbq8pIpJhF110Ue9rr732HbK3t/PbThcgIvnLhd3z6XQdYqjQdAKX03WIiIhIZmTN7TVFREREJP8pfIqIiIhIxih8ioiIiEjGKHyKiIiISMYofIqIiIhIxih8ioiIiEjGKHyKiIiISMZEwmdzc3PkNo7Nzc362eCfb7/9dhobGyM/P/LII2P6OdEtSEVERERAF5kXh+ki8yIiImbRsLuIiIiIZIzCp4iIiIhkjMKniIiIiGSMwqeIiIiIZIzCp4iIiIhkjMKniIiIiGSMwqeIiIiIZIzCp4iIiIhkTMrDZ09PD3Pnzo3cOSdV+vv7aWxspL+/P2XbjBW+y8/cuXPp6elJ2Xbb29vP+K4//f39LFq0CJfLRWNjI8FgMEXViYiIiGROSsNnf38/K1as4IEHHiAQCNDX15czt1psb2+nr6+PQCDAAw88wIoVK9IadMciGAyyatUqamtrsSyL0tJS7r33XqfLEhERERmzlIZPv99PcXExFRUVuN1u5s+fT0dHR0700u3Zs4f58+fjdrupqKgAoLu72+GqbIFAgMHBQebNmwfAggUL6OrqyppwLCIiIpKslIfPoqIiPB4PAGVlZfT29hIIBFL5NCkXDAbp6+ujrKwMAI/HE6k9G/j9fgBKSkoi3y3LiiwXERERyRUpDZ/ZEtbGKhAIZHXtfr+fgYEBp8sQkbGbBCwCHgP6AQvYCfwf4FLAlYLnKAMWp2A7ySgAPg3MzdDziUgeSmn4DPcc5ppwT2e2Kikpobi42OkyRGRszgc2YAfPE8BS4JPAOuAvgd8Af4cdUMfLC7QAF51Rpcn7GPALYEqGnk9E8lBKw2dJSQmDg4ORYfbe3l7Kysoiw/DZyu12U1paGun9DPeEZksgDQ+3h4fZ/X4/LpcrslxEss5MYA0wG/gMUAM8BWwFfojde/gd4P8BXwcmOFKliIgDUh4+BwYG6O7uJhgM0tHRETmJJ9vNnj07cnJU+ESj8IlHTvN4PBQVFbF9+3YAtmzZQmVlJV6v1+HKRCQBF3bY/Cjw90AX9nB7tKPYwfNBYDnwF5ksUETEaVYqdXd3W3PmzLEAq6mpKWXb9fv9VkNDg+X3+1O2zVhNTU0WYM2ZM8fq7u5O2Xbb2tqstra2M9qG3++3Fi5caAFWQ0ODFQgEUlSds4j/UBbJde8HngMeBaaN8tiPAn8C/pHT8z9XA5uxh9SjeUPLV4d+rsR+/0R/1QBu7KH4FuCvsYf93wO6gduAGVHbjH5sbC9BObArtM1wXdHPtSv0GBGRMSlM9QbLy8vZtWtXqjebEatXr2b16tWjP9ABXq+XzZs3O12GiIzufOCvgDuAg6M8di/wEjAHOBsYHMPz9ACfA1YBLwL/Etpe2BXAJ7CD8LXAR4CV2IG3AXhnDM8F8ATgx+6tXQb8Djs4i4iMScrDp4iI4S7E7vF8O4nHHgJeB+YB5zC28OkHfg0cAN7Ank8Kp3sw/wy7p/P/YJ/w9Bz2mfZPYIfWh8fwXACvcLrX9EXs6QQiImOWM+HT6/XS0tLidBnjUlNTM/qDRMRkhaT+pKOtwHrs4Bn2n8DT2Jd/egI4luLnFBEZVcrv7S4iImN2AjiZ4m32ALEXCD4IvAZcgN3TKiKScQqfIiKp9Tp2yHtfEo+dgj1H9C3si9Cn0lvAkWF+l46eVhGRpKQ8fPb09DB37lxcLhfNzc0p225/fz+NjY1pv595T08PixcvTunztLe3097enrJtpbJdRSTl/hv7AvJ/zugXY5+NfbLRTuwz0kcyibFdkP5cYHLMMhd26DzM8ME0+vmy+yLNIpKTUho++/v7WbFiBQ888ACBQIC+vr6Uha5M6OnpoaqqKmtvZdne3s6SJUucLkNERvYW8K/YZ5hXjvC4KcBXsedd/pShw+6JgmYJUDqGOs4nPvxOxQ68rwPvRi33EH8OwEzg4jE8n4hIUlIaPv1+P8XFxVRUVOB2u5k/f37kwu3Zrquri6qqKu68886svJVlc3MzHR0dtLa2Ol2KiIzMAnzAFuAe7AAaew/3Sdh3NlqGfcej6OvTvY19/czzopYVYt8pabgwOCHBc1QCV0Ytd2FffukLwLPYUwOOYYfQS7DDbdiU0OOGoyF7ERm3lJ7t7vf7KSoqitxOs6ysjPXr1xMIBLL+LkeVlZXs2rWLnp4ep0tJKHz90VzqSRYx2H6gETt8/hy7J/Rx7BOALgUWA3OBb2HfhjP6jPStwE3A2tDv3gauAiqAX8Y8z7HQ7xcBu7GH78OXeAoC92Lf9/0/se/LvgL7DPinQ485iX3h+uuBHwEPhJYtxr5k0+6Y5wufsPRV7DC7k9GvZSoiMkRKez7D90YXERHeAuqA67D/0H8IOzzWAb/CDp/fw77VZrQeoBY7+K3BDoT9oWWvxjz2IPZF348Bm4AvR/3uKeCLwIeBJ4G/wb4g/a3Ycz7DOrDD5iHsgPwdoBM7AL8V83wvY1839H8BP8O+lqiIyJiktOezrKyMjo6OVG5SRCSXHcXuWRzr7cl+h927+NWY5Y0JHvsC8PGon6OHmX6LHX5HYmGH4V8l+N2imJ9PAK2hLxGRcUlpz2dJSQmDg4MEAgHA7gktKyuLDMOLiIiIiNlSHj4HBgbo7u4mGAzS0dHB/Pnzs36+p4iIiIhkRkrDp9frZc2aNSxfvhyPx0NpaaluLSkiIiIiESm/t3t5eTm7du0a/YFZqry8nA0bNjhdxrAU5kVkFEESzw0VEckKur2miIiIiGSMC7Asy3K6DjGUy+WC+Itji4iISJ5Sz6eIiIiIZIzCp4iIiIhkTNrCZ3Nzc0pvBdnf309jYyP9/f0p22as5uZmXC4Xc+fOTeltNtvb21PWFu3t7TQ3N6dkWyIiIiKZlpbw2dzczO23356OTadNe3s7fX19BAIBHnjgAVasWJHWoDse7e3tLFmyxOkyRERERMYtpeEzGAzS2Ghf4aOpqSmVm067PXv2RC6IX1FRAUB3d7fDVZ3W3NxMR0cHra26q52IiIjkrpSGT7fbTUtLC6tXr07lZtMuGAzS19dHWVkZAB6Ph7KyMnp7ex2tK9rq1atpaWlhypQpTpciIiIiMm464QgIBAJZFTRFRERE8pXCJ6d7OkVEREQkvRQ+sacLlJaWRno/wz2hCqQiIiIiqaXwGTJ79mw6OjoIBoORE43CJx6JiIiISGoUOl1AtqipqWHPnj14PB7mzJnDxo0b8Xq9TpclIiIiklfSFj5z7Yx3sGvO9rpramqcLkFERERk3DTsLiIiIiIZ4wIsy7KcrkMM5XK5wH4dioiIiAHU8ykiIiIiGaPwKSIiIiIZo/ApIiIiIhmTtvDZ3NxMe3t7yrbX399PY2Mj/f39KdtmIj09PSxevDilz9Pe3n7GbdHf38+iRYtwuVw0NjYSDAZTVJ2IiIhI5qQlfDY3N3P77benY9Np1dPTQ1VVFQMDA06XMkSYZAx0AAAB5ElEQVQwGGTVqlXU1tZiWRalpaXce++9TpclIiIiMmYpDZ/BYJDGxkYAmpqaUrnptOvq6qKqqoo777yT4uJip8sZIhAIMDg4yLx58wBYsGABXV1dae8FFhEREUm1lIZPt9tNS0tL1l+oPZHKykp27dqVlbfU9Pv9AJSUlES+W5YVWS4iIiKSK3TCUQ7w+/1ZNxVAREREZDwUPnNASUlJ1k0FEBERERkPhc8cEB5uDw+z+/1+XC5XZLmIiIhIrlD4zAEej4eioiK2b98OwJYtW6isrMTr9TpcmYiIiMjYKHzmALfbzV133cX69etxuVz09fVx6623Ol2WiIiIyJgVpmvDuXjGO0B5eTkbNmxwuow4Xq+XzZs3O12GiIiIyBlRz6eIiIiIZIwLsCzLcroOMZTL5QL7dSgiIiIGUM+niIiIiGSMwqeIiIiIZIzCp4iIiIhkjMKniIiIiGSMwqeIiIiIZIzCp4iIiIhkjMKniIiIiGSMwqeIiIiIZIzCp4iIiIhkjMKniIiIiGSMwqeIiIiIZIzCp4iIiIhkjMKniIiIiGSMwqeIiIiIZIzCp4iIiIhkjMKniIiIiGSMwqeIiIiIZIzCp4iIiIhkjMKniIiIiGSMC7CcLkKM53K6ABEREcmM/w9JetvEUS/qrwAAAABJRU5ErkJggg==;clipPath=inset(10.73% 0% 0% 0%);" vertex="1" parent="1">
          <mxGeometry x="220" y="200" width="671" height="549.1016666666666" as="geometry" />
        </mxCell>
        <mxCell id="Vom6Ri1xNWv1tY5zl_pj-2" value="Alejandro Castaneda&lt;br style=&quot;font-size: 13px;&quot;&gt;TEJ3M1&lt;br style=&quot;font-size: 13px;&quot;&gt;Unit 4-15" style="text;html=1;resizable=0;autosize=1;align=left;verticalAlign=middle;points=[];fillColor=none;strokeColor=none;rounded=0;fontSize=13;" vertex="1" parent="1">
          <mxGeometry x="230" y="150" width="140" height="50" as="geometry" />
        </mxCell>
      </root>
    </mxGraphModel>
  </diagram>
</mxfile>
